<svg width="49" height="40" viewBox="0 0 49 40" fill="none" xmlns="http://www.w3.org/2000/svg">
<path d="M48.32 35.2843H1.28C1.016 35.2843 0.800003 35.5201 0.800003 35.8083V39.476C0.800003 39.7642 1.016 40 1.28 40H48.32C48.584 40 48.8 39.7642 48.8 39.476V35.8083C48.8 35.5201 48.584 35.2843 48.32 35.2843ZM4.022 27.0842L6.404 29.6713C6.59 29.8743 6.896 29.8743 7.082 29.6713L21.164 14.3518L27.02 20.7245C27.3808 21.1147 27.8681 21.3336 28.376 21.3336C28.8839 21.3336 29.3712 21.1147 29.732 20.7245L45.584 3.48596C45.77 3.28292 45.77 2.94889 45.584 2.74586L43.202 0.152213C43.1118 0.0547012 42.99 0 42.863 0C42.736 0 42.6142 0.0547012 42.524 0.152213L28.382 15.5438L22.52 9.17102C22.1592 8.78081 21.6719 8.5619 21.164 8.5619C20.6561 8.5619 20.1688 8.78081 19.808 9.17102L4.022 26.3441C3.97712 26.3925 3.94149 26.4501 3.91717 26.5136C3.89284 26.5771 3.88032 26.6453 3.88032 26.7141C3.88032 26.783 3.89284 26.8511 3.91717 26.9147C3.94149 26.9782 3.97712 27.0358 4.022 27.0842Z" fill="#39B300"/>
</svg>
