<svg width="48" height="36" viewBox="0 0 48 36" fill="none" xmlns="http://www.w3.org/2000/svg">
<path d="M0 35.4545V29.3454C0 28.109 0.318545 26.9723 0.955636 25.9352C1.59127 24.8996 2.43636 24.109 3.49091 23.5636C5.74545 22.4363 8.03636 21.5905 10.3636 21.0261C12.6909 20.4632 15.0545 20.1818 17.4545 20.1818C19.8545 20.1818 22.2182 20.4632 24.5455 21.0261C26.8727 21.5905 29.1636 22.4363 31.4182 23.5636C32.4727 24.109 33.3178 24.8996 33.9535 25.9352C34.5905 26.9723 34.9091 28.109 34.9091 29.3454V35.4545H0ZM39.2727 35.4545V28.909C39.2727 27.309 38.8276 25.7723 37.9375 24.2989C37.0458 22.8269 35.7818 21.5636 34.1455 20.509C36 20.7272 37.7455 21.0996 39.3818 21.6261C41.0182 22.1541 42.5455 22.8 43.9636 23.5636C45.2727 24.2909 46.2727 25.0996 46.9636 25.9898C47.6545 26.8814 48 27.8545 48 28.909V35.4545H39.2727ZM17.4545 18C15.0545 18 13 17.1454 11.2909 15.4363C9.58182 13.7272 8.72727 11.6727 8.72727 9.27268C8.72727 6.87268 9.58182 4.81814 11.2909 3.10905C13 1.39996 15.0545 0.54541 17.4545 0.54541C19.8545 0.54541 21.9091 1.39996 23.6182 3.10905C25.3273 4.81814 26.1818 6.87268 26.1818 9.27268C26.1818 11.6727 25.3273 13.7272 23.6182 15.4363C21.9091 17.1454 19.8545 18 17.4545 18ZM39.2727 9.27268C39.2727 11.6727 38.4182 13.7272 36.7091 15.4363C35 17.1454 32.9455 18 30.5455 18C30.1455 18 29.6364 17.9549 29.0182 17.8647C28.4 17.773 27.8909 17.6727 27.4909 17.5636C28.4727 16.4 29.2269 15.109 29.7535 13.6909C30.2815 12.2727 30.5455 10.8 30.5455 9.27268C30.5455 7.74541 30.2815 6.27268 29.7535 4.8545C29.2269 3.43632 28.4727 2.14541 27.4909 0.981773C28 0.799955 28.5091 0.681411 29.0182 0.626138C29.5273 0.57232 30.0364 0.54541 30.5455 0.54541C32.9455 0.54541 35 1.39996 36.7091 3.10905C38.4182 4.81814 39.2727 6.87268 39.2727 9.27268Z" fill="#8234E7"/>
</svg>
