<svg width="48" height="48" viewBox="0 0 48 48" fill="none" xmlns="http://www.w3.org/2000/svg">
<path fill-rule="evenodd" clip-rule="evenodd" d="M0 0H41.334V6.66613H38.6673V2.66645H2.66671V33.3307H31.1832V35.9971H0V0ZM40.0007 17.3319C41.0615 17.3319 42.079 16.9105 42.8291 16.1605C43.5793 15.4104 44.0007 14.393 44.0007 13.3323C44.0007 12.2715 43.5793 11.2541 42.8291 10.5041C42.079 9.75398 41.0615 9.33258 40.0007 9.33258C38.9398 9.33258 37.9223 9.75398 37.1722 10.5041C36.422 11.2541 36.0006 12.2715 36.0006 13.3323C36.0006 14.393 36.422 15.4104 37.1722 16.1605C37.9223 16.9105 38.9398 17.3319 40.0007 17.3319ZM42.7087 20.0117C44.4407 20.0117 45.8114 20.7903 46.7088 21.9929C47.5474 23.1195 47.9021 24.5127 47.9821 25.7993C48.0605 27.119 47.8807 28.4414 47.4528 29.6923C47.0528 30.8522 46.3768 32.0521 45.3341 32.8747V45.9963C45.335 46.4988 45.1468 46.9832 44.8068 47.3532C44.4669 47.7232 44 47.9517 43.4993 47.9932C42.9985 48.0347 42.5004 47.8862 42.1041 47.5772C41.7079 47.2682 41.4425 46.8214 41.3607 46.3256L39.6407 35.9971H39.2433L37.2993 46.3643C37.207 46.8536 36.9354 47.2908 36.5378 47.5905C36.1401 47.8903 35.6449 48.0308 35.1491 47.9848C34.6533 47.9388 34.1924 47.7095 33.8567 47.3418C33.521 46.974 33.3346 46.4942 33.3339 45.9963V26.9752C33.0672 27.3813 32.8041 27.7897 32.5445 28.2004L32.4405 28.3644L32.4139 28.4071L32.4072 28.4191C32.2275 28.7076 31.9772 28.9455 31.68 29.1104C31.3828 29.2754 31.0484 29.3618 30.7085 29.3616H24.0417C23.5113 29.3616 23.0026 29.1509 22.6275 28.7759C22.2524 28.4009 22.0417 27.8922 22.0417 27.3618C22.0417 26.8314 22.2524 26.3227 22.6275 25.9477C23.0026 25.5727 23.5113 25.362 24.0417 25.362H29.6112C29.9352 24.8607 30.3618 24.2101 30.8098 23.5568C31.2765 22.8755 31.7912 22.1542 32.2499 21.5889C32.4725 21.313 32.7219 21.025 32.9725 20.789C33.0952 20.673 33.2659 20.5224 33.4739 20.389C33.841 20.1481 34.2695 20.0176 34.7086 20.0131H42.7087V20.0117Z" fill="#E06106"/>
</svg>
