<svg width="51" height="42" viewBox="0 0 51 42" fill="none" xmlns="http://www.w3.org/2000/svg">
<path d="M16.3801 28.875C16.1919 28.875 16.0037 28.9037 15.8241 28.9644C14.8035 29.3098 13.7302 29.5312 12.6001 29.5312C11.47 29.5312 10.3967 29.3098 9.37529 28.9644C9.19574 28.9037 9.00832 28.875 8.82011 28.875C3.93289 28.875 -0.0258602 33.0159 0.000127219 38.1134C0.0111522 40.2675 1.71136 42 3.78012 42H21.4201C23.4888 42 25.189 40.2675 25.2001 38.1134C25.2261 33.0159 21.2673 28.875 16.3801 28.875ZM12.6001 26.25C16.7754 26.25 20.1601 22.7243 20.1601 18.375C20.1601 14.0257 16.7754 10.5 12.6001 10.5C8.42478 10.5 5.04011 14.0257 5.04011 18.375C5.04011 22.7243 8.42478 26.25 12.6001 26.25ZM46.62 0H16.3801C14.2956 0 12.6001 1.8252 12.6001 4.06793V7.875C14.4444 7.875 16.1517 8.43117 17.6401 9.33516V5.25H45.36V28.875H40.32V23.625H30.2401V28.875H24.2362C25.7403 30.2441 26.8444 32.0521 27.3617 34.125H46.62C48.7045 34.125 50.4 32.2998 50.4 30.0571V4.06793C50.4 1.8252 48.7045 0 46.62 0Z" fill="#5139E6"/>
</svg>
