<svg width="28" height="28" viewBox="0 0 28 28" fill="none" xmlns="http://www.w3.org/2000/svg">
<path d="M18.4 20.2667L20.2667 18.4001L15.3333 13.4667V7.33341H12.6667V14.5334L18.4 20.2667ZM14 27.3334C12.1555 27.3334 10.4222 26.9832 8.79999 26.2827C7.17777 25.5832 5.76666 24.6334 4.56666 23.4334C3.36666 22.2334 2.41688 20.8223 1.71732 19.2001C1.01688 17.5779 0.666656 15.8445 0.666656 14.0001C0.666656 12.1556 1.01688 10.4223 1.71732 8.80008C2.41688 7.17786 3.36666 5.76675 4.56666 4.56675C5.76666 3.36675 7.17777 2.41653 8.79999 1.71608C10.4222 1.01653 12.1555 0.666748 14 0.666748C15.8444 0.666748 17.5778 1.01653 19.2 1.71608C20.8222 2.41653 22.2333 3.36675 23.4333 4.56675C24.6333 5.76675 25.5831 7.17786 26.2827 8.80008C26.9831 10.4223 27.3333 12.1556 27.3333 14.0001C27.3333 15.8445 26.9831 17.5779 26.2827 19.2001C25.5831 20.8223 24.6333 22.2334 23.4333 23.4334C22.2333 24.6334 20.8222 25.5832 19.2 26.2827C17.5778 26.9832 15.8444 27.3334 14 27.3334Z" fill="#161A25"/>
</svg>
