<svg width="30" height="30" viewBox="0 0 30 30" fill="none" xmlns="http://www.w3.org/2000/svg">
<path d="M25.561 25.5616H21.1159V18.6003C21.1159 16.9403 21.0863 14.8034 18.8041 14.8034C16.4889 14.8034 16.1346 16.6121 16.1346 18.4795V25.5611H11.6897V11.246H15.9569V13.2023H16.0166C16.4437 12.4721 17.0608 11.8714 17.8022 11.4642C18.5436 11.057 19.3816 10.8585 20.2269 10.8898C24.7322 10.8898 25.5628 13.8533 25.5628 17.7085L25.561 25.5616ZM6.67409 9.28928C5.24944 9.28952 4.09433 8.13475 4.09409 6.7101C4.09386 5.28545 5.24851 4.13034 6.67315 4.1301C8.0978 4.12975 9.25292 5.28452 9.25315 6.70917C9.25328 7.39331 8.98163 8.04949 8.49797 8.53335C8.0143 9.01721 7.35824 9.28913 6.67409 9.28928ZM8.89667 25.5617H4.44694V11.246H8.89655V25.5616L8.89667 25.5617ZM27.777 0.00193928H2.21335C1.00515 -0.0116545 0.0143269 0.956197 -0.00043869 2.1644V27.8347C0.0138582 29.0435 1.00456 30.0122 2.21323 29.9996H27.777C28.9882 30.0146 29.9828 29.0458 29.9996 27.8347V2.16241C29.9823 0.951861 28.9876 -0.0158732 27.777 -5.29032e-05" fill="#0A66C2"/>
</svg>
