<svg width="22" height="28" viewBox="0 0 22 28" fill="none" xmlns="http://www.w3.org/2000/svg">
<path d="M11 14.0003C11.7333 14.0003 12.3613 13.739 12.884 13.2163C13.4058 12.6945 13.6667 12.067 13.6667 11.3337C13.6667 10.6003 13.4058 9.97233 12.884 9.44966C12.3613 8.92788 11.7333 8.66699 11 8.66699C10.2667 8.66699 9.63912 8.92788 9.11734 9.44966C8.59468 9.97233 8.33334 10.6003 8.33334 11.3337C8.33334 12.067 8.59468 12.6945 9.11734 13.2163C9.63912 13.739 10.2667 14.0003 11 14.0003ZM11 27.3337C7.42223 24.2892 4.75023 21.4612 2.98401 18.8497C1.2169 16.239 0.333344 13.8225 0.333344 11.6003C0.333344 8.26699 1.40579 5.61144 3.55068 3.63366C5.69468 1.65588 8.17779 0.666992 11 0.666992C13.8222 0.666992 16.3053 1.65588 18.4493 3.63366C20.5942 5.61144 21.6667 8.26699 21.6667 11.6003C21.6667 13.8225 20.7836 16.239 19.0173 18.8497C17.2502 21.4612 14.5778 24.2892 11 27.3337Z" fill="#161A25"/>
</svg>
