<svg width="28" height="22" viewBox="0 0 28 22" fill="none" xmlns="http://www.w3.org/2000/svg">
<path d="M3.33341 21.6668C2.60008 21.6668 1.97253 21.4059 1.45075 20.8842C0.928081 20.3615 0.666748 19.7335 0.666748 19.0002V3.00016C0.666748 2.26683 0.928081 1.63927 1.45075 1.1175C1.97253 0.594829 2.60008 0.333496 3.33341 0.333496H24.6667C25.4001 0.333496 26.0281 0.594829 26.5507 1.1175C27.0725 1.63927 27.3334 2.26683 27.3334 3.00016V19.0002C27.3334 19.7335 27.0725 20.3615 26.5507 20.8842C26.0281 21.4059 25.4001 21.6668 24.6667 21.6668H3.33341ZM14.0001 12.3335L24.6667 5.66683V3.00016L14.0001 9.66683L3.33341 3.00016V5.66683L14.0001 12.3335Z" fill="#161A25"/>
</svg>
