<svg width="48" height="49" viewBox="0 0 48 49" fill="none" xmlns="http://www.w3.org/2000/svg">
<path d="M38 32.2114V17.2114C38 15.8281 36.8971 14.7114 35.5309 14.7114H12.4691C11.1029 14.7114 10 15.8281 10 17.2114V32.2114C10 33.5948 11.1029 34.7114 12.4691 34.7114H35.5309C36.8971 34.7114 38 33.5948 38 32.2114ZM35.8436 17.0281C36.3868 17.5781 36.0905 18.1448 35.7942 18.4281L29.1111 24.6281L35.5309 31.3948C35.7284 31.6281 35.8601 31.9948 35.6296 32.2448C35.4156 32.5114 34.9218 32.4948 34.7078 32.3281L27.5144 26.1114L23.9918 29.3614L20.4856 26.1114L13.2922 32.3281C13.0782 32.4948 12.5844 32.5114 12.3704 32.2448C12.1399 31.9948 12.2716 31.6281 12.4691 31.3948L18.8889 24.6281L12.2058 18.4281C11.9095 18.1448 11.6132 17.5781 12.1564 17.0281C12.6996 16.4781 13.2593 16.7448 13.7202 17.1448L23.9918 25.5448L34.2798 17.1448C34.7407 16.7448 35.3004 16.4781 35.8436 17.0281V17.0281Z" fill="black"/>
</svg>
