<svg width="48" height="49" viewBox="0 0 48 49" fill="none" xmlns="http://www.w3.org/2000/svg">
<path d="M36 26.7094H40C40 16.4494 32.254 8.71143 21.98 8.71143V12.7114C30.104 12.7114 36 18.5974 36 26.7094Z" fill="black"/>
<path d="M25.3506 19.6573C27.9478 19.6573 29.0557 20.765 29.0557 23.3621H31.5257C31.5257 19.3794 29.3335 17.1874 25.3506 17.1874V19.6573ZM29.5768 26.379C29.3395 26.1633 29.0277 26.0483 28.7071 26.0582C28.3866 26.0681 28.0825 26.2022 27.8589 26.4321L24.9035 29.4713C24.1921 29.3355 22.762 28.8896 21.2898 27.4213C19.8177 25.948 19.3718 24.5143 19.2397 23.8079L22.2766 20.8514C22.5068 20.6281 22.6411 20.3239 22.651 20.0033C22.6609 19.6827 22.5457 19.3708 22.3297 19.1336L17.7663 14.1161C17.5502 13.8782 17.2499 13.7339 16.9291 13.7138C16.6084 13.6938 16.2924 13.7995 16.0484 14.0087L13.3684 16.3069C13.1549 16.5212 13.0274 16.8064 13.0102 17.1084C12.9917 17.4171 12.6385 24.7304 18.3097 30.4037C23.2572 35.3496 29.4546 35.7114 31.1614 35.7114C31.4109 35.7114 31.564 35.704 31.6048 35.7015C31.9067 35.6846 32.1918 35.5566 32.4051 35.3422L34.7022 32.6611C34.9115 32.4173 35.0175 32.1014 34.9976 31.7807C34.9778 31.4599 34.8337 31.1596 34.596 30.9433L29.5768 26.379V26.379Z" fill="black"/>
</svg>
