<svg width="24" height="24" viewBox="0 0 24 24" fill="none" xmlns="http://www.w3.org/2000/svg">
<path d="M22.6 24C19.7333 24 16.9391 23.3609 14.2173 22.0827C11.4947 20.8053 9.08356 19.1164 6.984 17.016C4.88356 14.9164 3.19467 12.5053 1.91733 9.78267C0.639111 7.06089 0 4.26667 0 1.4C0 1 0.133333 0.666667 0.4 0.4C0.666667 0.133333 1 0 1.4 0H6.8C7.11111 0 7.38889 0.0999999 7.63333 0.3C7.87778 0.5 8.02222 0.755556 8.06667 1.06667L8.93333 5.73333C8.97778 6.04445 8.97244 6.32756 8.91733 6.58267C8.86133 6.83867 8.73333 7.06667 8.53333 7.26667L5.33333 10.5333C6.26667 12.1333 7.43333 13.6333 8.83333 15.0333C10.2333 16.4333 11.7778 17.6444 13.4667 18.6667L16.6 15.5333C16.8 15.3333 17.0613 15.1831 17.384 15.0827C17.7058 14.9831 18.0222 14.9556 18.3333 15L22.9333 15.9333C23.2444 16 23.5 16.1498 23.7 16.3827C23.9 16.6164 24 16.8889 24 17.2V22.6C24 23 23.8667 23.3333 23.6 23.6C23.3333 23.8667 23 24 22.6 24Z" fill="#161A25"/>
</svg>
