<svg width="559" height="682" viewBox="0 0 559 682" fill="none" xmlns="http://www.w3.org/2000/svg">
<circle cx="19.3736" cy="15.2501" r="6.4691" fill="#F7F7F7" fill-opacity="0.51"/>
<circle cx="19.3736" cy="40.5104" r="6.4691" fill="#F7F7F7" fill-opacity="0.51"/>
<circle cx="19.3736" cy="65.7706" r="6.4691" fill="#F7F7F7" fill-opacity="0.51"/>
<circle cx="19.3736" cy="91.0309" r="6.4691" fill="#F7F7F7" fill-opacity="0.51"/>
<circle cx="53.2593" cy="15.2501" r="6.4691" fill="#F7F7F7" fill-opacity="0.51"/>
<circle cx="53.2593" cy="40.5104" r="6.4691" fill="#F7F7F7" fill-opacity="0.51"/>
<circle cx="53.2593" cy="65.7706" r="6.4691" fill="#F7F7F7" fill-opacity="0.51"/>
<circle cx="53.2593" cy="91.0309" r="6.4691" fill="#F7F7F7" fill-opacity="0.51"/>
<circle cx="87.1451" cy="15.2501" r="6.4691" fill="#F7F7F7" fill-opacity="0.51"/>
<circle cx="87.1451" cy="40.5104" r="6.4691" fill="#F7F7F7" fill-opacity="0.51"/>
<circle cx="87.1451" cy="65.7706" r="6.4691" fill="#F7F7F7" fill-opacity="0.51"/>
<circle cx="87.1451" cy="91.0309" r="6.4691" fill="#F7F7F7" fill-opacity="0.51"/>
<circle cx="121.031" cy="15.2501" r="6.4691" fill="#F7F7F7" fill-opacity="0.51"/>
<circle cx="121.031" cy="40.5104" r="6.4691" fill="#F7F7F7" fill-opacity="0.51"/>
<circle cx="121.031" cy="65.7706" r="6.4691" fill="#F7F7F7" fill-opacity="0.51"/>
<circle cx="121.031" cy="91.0309" r="6.4691" fill="#F7F7F7" fill-opacity="0.51"/>
<path d="M454.153 789.563C428.389 760.083 433.564 698.227 502.525 726.223C520.058 733.342 546.035 722.345 539.879 693.428C531.206 652.69 602.153 655.825 623.019 683.003C656.265 726.305 616.192 754.541 583.542 743.816C564.93 737.702 549.511 741.955 542.138 778.92C534.764 815.885 477.379 816.138 454.153 789.563Z" stroke="white" stroke-opacity="0.45" stroke-width="4"/>
<path d="M470.727 782.294C453.787 762.912 449.044 719.154 506.189 735.319C531.844 742.577 553.125 721.622 550.049 694.433C546.971 667.221 600.415 665.509 615.267 688.363C634.825 718.46 621.484 743.821 593.961 737.595C581.399 734.754 541.705 713.814 534.965 760.072C528.225 806.33 485.997 799.767 470.727 782.294Z" stroke="white" stroke-opacity="0.45" stroke-width="4"/>
<path d="M439.455 800.567C397.711 759.134 421.936 671.09 490.16 705.464C512.472 716.706 538.258 718.271 528.469 672.289C521.586 639.96 593.749 629.866 625.574 659.311C686.558 715.734 632.544 769.628 582.893 756.037C558.457 749.349 558.382 776.579 538.284 804.235C518.185 831.89 476.647 837.483 439.455 800.567Z" stroke="white" stroke-opacity="0.45" stroke-width="4"/>
<path d="M415.227 815.798C359.957 756.669 386.217 637.902 475.782 687.727C505.072 704.021 530.866 706.899 515.389 661.988C500.216 617.96 596.676 605.701 638.764 647.771C709.08 718.058 651.034 791.036 586.113 770.817C554.163 760.867 566.186 789.136 540.666 827.504C515.146 865.871 464.47 868.48 415.227 815.798Z" stroke="white" stroke-opacity="0.45" stroke-width="4"/>
<path d="M395.092 831.884C324.782 752.644 380.043 622.808 450.996 665.073C488.022 687.129 520.449 691.346 500.317 631.575C480.581 572.978 620.248 578.324 670.095 637.992C724.377 702.969 694.045 797.272 608.274 786.722C568.798 781.866 582.867 804.991 547.826 846.256C512.786 887.521 457.736 902.484 395.092 831.884Z" stroke="white" stroke-opacity="0.45" stroke-width="4"/>
<path d="M370.018 845.057C293.166 766.829 355.856 605.531 444.065 646.557C495.691 670.569 497.903 686.507 484.498 604.268C473.673 537.85 614.347 540.54 680.201 619.369C751.914 705.211 716.471 810.898 627.122 809.236C574.586 808.259 603.373 811.636 558.085 864.97C512.796 918.304 455.24 931.805 370.018 845.057Z" stroke="white" stroke-opacity="0.45" stroke-width="4"/>
<path d="M348.775 868.07C266.221 774.187 323.756 575.945 426.506 623.734C466.885 642.514 474.575 631.171 473.604 574.473C472.426 505.665 652.617 516.738 710.091 605.178C773.51 702.766 738.975 824.603 634.896 822.667C588.406 821.802 597.767 828.396 571.227 876.407C544.687 924.418 442.314 974.446 348.775 868.07Z" stroke="white" stroke-opacity="0.45" stroke-width="4"/>
<path d="M310.629 889.501C214.948 783.912 297.677 545.325 417.327 598.579C464.347 619.507 459.52 620.351 458.847 556.186C458.03 478.317 668.448 489.385 734.874 589.018C808.17 698.955 766.835 837.134 645.261 835.789C590.955 835.187 601.837 842.574 570.442 897.13C539.046 951.686 419.043 1009.14 310.629 889.501Z" stroke="white" stroke-opacity="0.45" stroke-width="4"/>
</svg>
