<svg width="34" height="30" viewBox="0 0 34 30" fill="none" xmlns="http://www.w3.org/2000/svg">
<path d="M34 3.65316C32.7268 4.26274 31.3764 4.66287 29.9936 4.84024C31.4339 3.90723 32.5399 2.42976 33.0606 0.669382C31.6914 1.54754 30.1933 2.16626 28.6312 2.49881C27.3587 1.03369 25.546 0.118042 23.5396 0.118042C19.6872 0.118042 16.5638 3.49354 16.5638 7.6568C16.5638 8.24775 16.6256 8.82306 16.7445 9.37498C10.9472 9.06048 5.80736 6.05919 2.36685 1.49804C1.76654 2.61149 1.42255 3.90665 1.42255 5.28809C1.42255 7.90369 2.65412 10.2111 4.52572 11.5631C3.418 11.5256 2.33464 11.2023 1.36611 10.6201C1.36571 10.6516 1.36571 10.6832 1.36571 10.7149C1.36571 14.3676 3.77015 17.4147 6.9611 18.1073C5.93391 18.4092 4.85646 18.4534 3.81105 18.2365C4.69864 21.2316 7.27481 23.4111 10.3271 23.4721C7.9398 25.494 4.93199 26.6993 1.66401 26.6993C1.10088 26.6993 0.545727 26.6636 0 26.594C3.08696 28.733 6.75352 29.9811 10.6927 29.9811C23.5234 29.9811 30.5394 18.4934 30.5394 8.5311C30.5394 8.20412 30.5328 7.879 30.5193 7.55574C31.8849 6.48878 33.0636 5.16725 34 3.65316Z" fill="#55ACEE"/>
</svg>
