<svg width="38" height="26" viewBox="0 0 38 26" fill="none" xmlns="http://www.w3.org/2000/svg">
<g clip-path="url(#clip0_378_1304)">
<path d="M37.1606 4.05528C36.9426 3.27146 36.5174 2.55687 35.9274 1.98268C35.3374 1.4085 34.6031 0.994733 33.7976 0.7826C30.8487 0 18.9805 0 18.9805 0C18.9805 0 7.11178 0.0236888 4.16292 0.806289C3.35742 1.01843 2.62309 1.43222 2.03305 2.00643C1.44301 2.58065 1.01785 3.29526 0.799916 4.07911C-0.092045 9.17771 -0.438053 16.9468 0.824408 21.8414C1.04237 22.6253 1.46754 23.3398 2.05757 23.914C2.64761 24.4882 3.38193 24.902 4.18741 25.1141C7.13627 25.8967 19.0047 25.8967 19.0047 25.8967C19.0047 25.8967 30.8731 25.8967 33.8218 25.1141C34.6273 24.902 35.3616 24.4883 35.9517 23.9141C36.5418 23.3399 36.9669 22.6253 37.1849 21.8414C38.1257 16.7356 38.4156 8.97144 37.1606 4.05542V4.05528Z" fill="#FF0000"/>
<path d="M15.2031 18.4976L25.0487 12.9483L15.2031 7.39905V18.4976Z" fill="white"/>
</g>
<defs>
<clipPath id="clip0_378_1304">
<rect width="38" height="26" fill="white"/>
</clipPath>
</defs>
</svg>
