<svg width="1440" height="625" viewBox="0 0 1440 625" fill="none" xmlns="http://www.w3.org/2000/svg">
<path d="M1524.09 353.402C1503.36 440.356 1378.12 589.876 1043.03 492.319C624.166 370.373 428.59 338.207 168.134 442.425C-92.322 546.643 -256.668 539.023 -366.887 411.914" stroke="#7B78FF" stroke-opacity="0.8" stroke-width="0.5"/>
<path d="M1535.17 344.538C1514.44 431.492 1389.21 581.012 1054.12 483.455C635.254 361.508 439.677 329.343 179.221 433.561C-81.235 537.779 -245.581 530.158 -355.8 403.05" stroke="#7B78FF" stroke-opacity="0.8" stroke-width="0.5"/>
<path d="M1546.26 335.674C1525.53 422.628 1400.3 572.147 1065.21 474.59C646.341 352.644 450.765 320.479 190.308 424.697C-70.1478 528.915 -234.494 521.294 -344.713 394.185" stroke="#7B78FF" stroke-opacity="0.8" stroke-width="0.5"/>
<path d="M1557.35 326.81C1536.62 413.764 1411.38 563.283 1076.29 465.726C657.428 343.78 461.852 311.615 201.395 415.833C-59.0607 520.051 -223.407 512.43 -333.626 385.321" stroke="#7B78FF" stroke-opacity="0.8" stroke-width="0.5"/>
<path d="M1568.43 317.946C1547.7 404.9 1422.47 554.419 1087.38 456.862C668.515 334.916 472.939 302.751 212.482 406.969C-47.9737 511.187 -212.32 503.566 -322.538 376.457" stroke="#7B78FF" stroke-opacity="0.8" stroke-width="0.5"/>
<path d="M1579.52 309.082C1558.79 396.036 1433.56 545.556 1098.47 447.999C679.602 326.052 484.026 293.887 223.57 398.105C-36.8865 502.323 -201.233 494.703 -311.451 367.594" stroke="#7B78FF" stroke-opacity="0.8" stroke-width="0.5"/>
<path d="M1590.61 300.218C1569.88 387.172 1444.65 536.691 1109.55 439.134C690.689 317.188 495.113 285.023 234.657 389.241C-25.7994 493.459 -190.146 485.838 -300.364 358.729" stroke="#7B78FF" stroke-opacity="0.8" stroke-width="0.5"/>
<path d="M1601.7 291.354C1580.97 378.308 1455.73 527.828 1120.64 430.271C701.776 308.324 506.2 276.159 245.744 380.377C-14.7122 484.595 -179.058 476.974 -289.277 349.866" stroke="#7B78FF" stroke-opacity="0.8" stroke-width="0.5"/>
<path d="M1612.78 282.49C1592.05 369.444 1466.82 518.963 1131.73 421.406C712.863 299.46 517.287 267.294 256.831 371.512C-3.62506 475.73 -167.971 468.11 -278.19 341.001" stroke="#7B78FF" stroke-opacity="0.8" stroke-width="0.5"/>
<path d="M1623.87 273.626C1603.14 360.58 1477.91 510.099 1142.82 412.542C723.951 290.596 528.374 258.431 267.918 362.649C7.4621 466.867 -156.884 459.246 -267.103 332.137" stroke="#7B78FF" stroke-opacity="0.8" stroke-width="0.5"/>
<path d="M1634.96 264.762C1614.23 351.716 1488.99 501.235 1153.9 403.678C735.038 281.732 539.462 249.567 279.005 353.785C18.5493 458.002 -145.797 450.382 -256.016 323.273" stroke="#7B78FF" stroke-opacity="0.8" stroke-width="0.5"/>
<path d="M1646.04 255.898C1625.32 342.853 1500.08 492.372 1164.99 394.815C746.125 272.869 550.549 240.703 290.093 344.921C29.6364 449.139 -134.71 441.519 -244.928 314.41" stroke="#7B78FF" stroke-opacity="0.8" stroke-width="0.5"/>
<path d="M1657.13 247.034C1636.4 333.988 1511.17 483.507 1176.08 385.95C757.212 264.004 561.636 231.839 301.18 336.057C40.7236 440.275 -123.623 432.654 -233.841 305.545" stroke="#7B78FF" stroke-opacity="0.8" stroke-width="0.5"/>
<path d="M1668.22 238.17C1647.49 325.125 1522.26 474.644 1187.16 377.087C768.299 255.141 572.723 222.975 312.267 327.193C51.8107 431.411 -112.535 423.791 -222.754 296.682" stroke="#7B78FF" stroke-opacity="0.8" stroke-width="0.5"/>
<path d="M1679.31 229.305C1658.58 316.26 1533.34 465.779 1198.25 368.222C779.386 246.276 583.81 214.11 323.354 318.328C62.8979 422.546 -101.448 414.926 -211.667 287.817" stroke="#7B78FF" stroke-opacity="0.8" stroke-width="0.5"/>
<path d="M1690.39 220.442C1669.66 307.397 1544.43 456.916 1209.34 359.359C790.474 237.413 594.897 205.247 334.441 309.465C73.985 413.683 -90.3611 406.063 -200.58 278.954" stroke="#7B78FF" stroke-opacity="0.8" stroke-width="0.5"/>
<path d="M1701.48 211.578C1680.75 298.533 1555.52 448.052 1220.43 350.495C801.561 228.549 605.985 196.383 345.528 300.601C85.0722 404.819 -79.2739 397.199 -189.493 270.09" stroke="#7B78FF" stroke-opacity="0.8" stroke-width="0.5"/>
<path d="M1712.57 202.714C1691.84 289.669 1566.61 439.188 1231.51 341.631C812.648 219.685 617.072 187.519 356.616 291.737C96.1594 395.955 -68.1868 388.335 -178.405 261.226" stroke="#7B78FF" stroke-opacity="0.8" stroke-width="0.5"/>
<path d="M1723.66 193.85C1702.93 280.805 1577.69 430.324 1242.6 332.767C823.735 210.821 628.159 178.655 367.703 282.873C107.247 387.091 -57.0996 379.471 -167.318 252.362" stroke="#7B78FF" stroke-opacity="0.8" stroke-width="0.5"/>
<path d="M1734.74 184.986C1714.01 271.941 1588.78 421.46 1253.69 323.903C834.822 201.957 639.246 169.791 378.79 274.009C118.334 378.227 -46.0124 370.607 -156.231 243.498" stroke="#7B78FF" stroke-opacity="0.8" stroke-width="0.5"/>
<path d="M1745.83 176.122C1725.1 263.077 1599.87 412.596 1264.77 315.039C845.909 193.093 650.333 160.927 389.877 265.145C129.421 369.363 -34.9253 361.743 -145.144 234.634" stroke="#7B78FF" stroke-opacity="0.8" stroke-width="0.5"/>
<path d="M1756.92 167.258C1736.19 254.213 1610.95 403.732 1275.86 306.175C856.997 184.229 661.42 152.063 400.964 256.281C140.508 360.499 -23.8381 352.879 -134.057 225.77" stroke="#7B78FF" stroke-opacity="0.8" stroke-width="0.5"/>
<path d="M1768 158.394C1747.27 245.349 1622.04 394.868 1286.95 297.311C868.084 175.365 672.507 143.199 412.051 247.417C151.595 351.635 -12.751 344.015 -122.97 216.906" stroke="#7B78FF" stroke-opacity="0.8" stroke-width="0.5"/>
<path d="M1779.09 149.53C1758.36 236.484 1633.13 386.003 1298.04 288.447C879.171 166.5 683.595 134.335 423.138 238.553C162.682 342.771 -1.66383 335.15 -111.882 208.041" stroke="#7B78FF" stroke-opacity="0.8" stroke-width="0.5"/>
<path d="M1790.18 140.666C1769.45 227.62 1644.22 377.14 1309.12 279.583C890.258 157.637 694.682 125.471 434.226 229.689C173.769 333.907 9.42322 326.287 -100.795 199.178" stroke="#7B78FF" stroke-opacity="0.8" stroke-width="0.5"/>
<path d="M1801.26 131.803C1780.53 218.757 1655.3 368.276 1320.21 270.719C901.345 148.773 705.769 116.607 445.313 220.825C184.856 325.043 20.5102 317.423 -89.7084 190.314" stroke="#7B78FF" stroke-opacity="0.8" stroke-width="0.5"/>
<path d="M1812.35 122.938C1791.62 209.892 1666.39 359.412 1331.3 261.855C912.432 139.909 716.856 107.743 456.4 211.961C195.943 316.179 31.5973 308.559 -78.6214 181.45" stroke="#7B78FF" stroke-opacity="0.8" stroke-width="0.5"/>
</svg>
