<svg width="360" height="490" viewBox="0 0 360 490" fill="none" xmlns="http://www.w3.org/2000/svg">
<path d="M-77.7617 353.904C-63.6795 398.795 -17.0191 471.639 56.9645 403.886C149.444 319.196 195.157 292.729 271.066 335.1C346.975 377.471 387.373 365.475 401.994 293.036" stroke="#7B78FF" stroke-opacity="0.8" stroke-width="0.5"/>
<path d="M-79.4698 346.05C-65.3876 390.941 -18.7272 463.785 55.2564 396.033C147.736 311.343 193.449 284.875 269.358 327.246C345.267 369.618 385.664 357.621 400.286 285.182" stroke="#7B78FF" stroke-opacity="0.8" stroke-width="0.5"/>
<path d="M-81.1782 338.197C-67.096 383.088 -20.4356 455.931 53.548 388.179C146.027 303.489 191.74 277.022 267.65 319.393C343.559 361.764 383.956 349.768 398.578 277.328" stroke="#7B78FF" stroke-opacity="0.8" stroke-width="0.5"/>
<path d="M-82.8868 330.343C-68.8046 375.234 -22.1442 448.078 51.8394 380.326C144.319 295.635 190.032 269.168 265.941 311.539C341.85 353.911 382.247 341.914 396.869 269.475" stroke="#7B78FF" stroke-opacity="0.8" stroke-width="0.5"/>
<path d="M-84.5951 322.489C-70.5128 367.38 -23.8524 440.224 50.1311 372.472C142.611 287.782 188.323 261.314 264.233 303.686C340.142 346.057 380.539 334.061 395.161 261.621" stroke="#7B78FF" stroke-opacity="0.8" stroke-width="0.5"/>
<path d="M-86.3039 314.636C-72.2217 359.527 -25.5613 432.371 48.4223 364.618C140.902 279.928 186.615 253.461 262.524 295.832C338.433 338.204 378.83 326.207 393.452 253.768" stroke="#7B78FF" stroke-opacity="0.8" stroke-width="0.5"/>
<path d="M-88.0124 306.782C-73.9302 351.673 -27.2698 424.517 46.7138 356.765C139.193 272.075 184.906 245.607 260.815 287.979C336.725 330.35 377.122 318.354 391.744 245.914" stroke="#7B78FF" stroke-opacity="0.8" stroke-width="0.5"/>
<path d="M-89.7212 298.929C-75.6389 343.82 -28.9785 416.663 45.005 348.911C137.485 264.221 183.197 237.754 259.107 280.125C335.016 322.496 375.413 310.5 390.035 238.06" stroke="#7B78FF" stroke-opacity="0.8" stroke-width="0.5"/>
<path d="M-91.4294 291.075C-77.3472 335.966 -30.6868 408.81 43.2968 341.058C135.776 256.367 181.489 229.9 257.398 272.271C333.308 314.643 373.705 302.646 388.327 230.207" stroke="#7B78FF" stroke-opacity="0.8" stroke-width="0.5"/>
<path d="M-93.1379 283.222C-79.0557 328.112 -32.3953 400.956 41.5883 333.204C134.068 248.514 179.781 222.046 255.69 264.418C331.599 306.789 371.996 294.793 386.618 222.353" stroke="#7B78FF" stroke-opacity="0.8" stroke-width="0.5"/>
<path d="M-94.8464 275.368C-80.7642 320.259 -34.1038 393.103 39.8798 325.35C132.359 240.66 178.072 214.193 253.981 256.564C329.891 298.935 370.288 286.939 384.91 214.5" stroke="#7B78FF" stroke-opacity="0.8" stroke-width="0.5"/>
<path d="M-96.5552 267.514C-82.4729 312.405 -35.8125 385.249 38.1711 317.497C130.651 232.807 176.363 206.339 252.273 248.711C328.182 291.082 368.579 279.086 383.201 206.646" stroke="#7B78FF" stroke-opacity="0.8" stroke-width="0.5"/>
<path d="M-98.2634 259.661C-84.1812 304.552 -37.5208 377.396 36.4628 309.643C128.942 224.953 174.655 198.486 250.564 240.857C326.474 283.228 366.871 271.232 381.493 198.793" stroke="#7B78FF" stroke-opacity="0.8" stroke-width="0.5"/>
<path d="M-99.9722 251.807C-85.8899 296.698 -39.2295 369.542 34.7541 301.79C127.234 217.1 172.946 190.632 248.856 233.004C324.765 275.375 365.162 263.378 379.784 190.939" stroke="#7B78FF" stroke-opacity="0.8" stroke-width="0.5"/>
<path d="M-101.68 243.954C-87.598 288.845 -40.9376 361.688 33.0459 293.936C125.525 209.246 171.238 182.778 247.147 225.15C323.057 267.521 363.454 255.525 378.076 183.085" stroke="#7B78FF" stroke-opacity="0.8" stroke-width="0.5"/>
<path d="M-103.389 236.1C-89.3066 280.991 -42.6463 353.835 31.3373 286.083C123.817 201.392 169.53 174.925 245.439 217.296C321.348 259.668 361.745 247.671 376.367 175.232" stroke="#7B78FF" stroke-opacity="0.8" stroke-width="0.5"/>
<path d="M-105.097 228.246C-91.0151 273.137 -44.3547 345.981 29.6288 278.229C122.108 193.539 167.821 167.071 243.73 209.443C319.64 251.814 360.037 239.818 374.659 167.378" stroke="#7B78FF" stroke-opacity="0.8" stroke-width="0.5"/>
<path d="M-106.806 220.393C-92.7235 265.284 -46.0631 338.128 27.9204 270.375C120.4 185.685 166.113 159.218 242.022 201.589C317.931 243.96 358.329 231.964 372.95 159.525" stroke="#7B78FF" stroke-opacity="0.8" stroke-width="0.5"/>
<path d="M-108.514 212.539C-94.4319 257.43 -47.7715 330.274 26.2121 262.522C118.692 177.832 164.404 151.364 240.314 193.735C316.223 236.107 356.62 224.11 371.242 151.671" stroke="#7B78FF" stroke-opacity="0.8" stroke-width="0.5"/>
<path d="M-110.223 204.686C-96.1406 249.577 -49.4802 322.42 24.5033 254.668C116.983 169.978 162.696 143.511 238.605 185.882C314.514 228.253 354.911 216.257 369.533 143.817" stroke="#7B78FF" stroke-opacity="0.8" stroke-width="0.5"/>
<path d="M-111.931 196.832C-97.8491 241.723 -51.1887 314.567 22.7948 246.815C115.274 162.124 160.987 135.657 236.896 178.028C312.806 220.4 353.203 208.403 367.825 135.964" stroke="#7B78FF" stroke-opacity="0.8" stroke-width="0.5"/>
<path d="M-113.639 188.978C-99.5571 233.869 -52.8967 306.713 21.0868 238.961C113.566 154.271 159.279 127.803 235.188 170.175C311.098 212.546 351.495 200.549 366.117 128.11" stroke="#7B78FF" stroke-opacity="0.8" stroke-width="0.5"/>
<path d="M-115.348 181.125C-101.266 226.016 -54.6052 298.86 19.3783 231.107C111.858 146.417 157.571 119.95 233.48 162.321C309.389 204.692 349.786 192.696 364.408 120.257" stroke="#7B78FF" stroke-opacity="0.8" stroke-width="0.5"/>
<path d="M-117.056 173.271C-102.974 218.162 -56.3135 291.006 17.6701 223.254C110.15 138.563 155.862 112.096 231.772 154.467C307.681 196.839 348.078 184.842 362.7 112.403" stroke="#7B78FF" stroke-opacity="0.8" stroke-width="0.5"/>
<path d="M-118.765 165.418C-104.683 210.309 -58.0221 283.152 15.9615 215.4C108.441 130.71 154.154 104.243 230.063 146.614C305.972 188.985 346.37 176.989 360.991 104.549" stroke="#7B78FF" stroke-opacity="0.8" stroke-width="0.5"/>
<path d="M-120.473 157.564C-106.391 202.455 -59.7307 275.299 14.2528 207.547C106.732 122.856 152.445 96.3889 228.354 138.76C304.264 181.132 344.661 169.135 359.283 96.6958" stroke="#7B78FF" stroke-opacity="0.8" stroke-width="0.5"/>
<path d="M-122.182 149.711C-108.099 194.601 -61.439 267.445 12.5446 199.693C105.024 115.003 150.737 88.5354 226.646 130.907C302.555 173.278 342.953 161.282 357.574 88.8423" stroke="#7B78FF" stroke-opacity="0.8" stroke-width="0.5"/>
</svg>
