<svg width="360" height="683" viewBox="0 0 360 683" fill="none" xmlns="http://www.w3.org/2000/svg">
<path d="M-34.5317 603.234C-34.5317 605.02 -35.9797 606.468 -37.7658 606.468C-39.552 606.468 -41 605.02 -41 603.234C-41 601.448 -39.552 600 -37.7658 600C-35.9797 600 -34.5317 601.448 -34.5317 603.234Z" fill="#E128FF" fill-opacity="0.51"/>
<path d="M-34.5317 615.863C-34.5317 617.649 -35.9797 619.097 -37.7658 619.097C-39.552 619.097 -41 617.649 -41 615.863C-41 614.077 -39.552 612.629 -37.7658 612.629C-35.9797 612.629 -34.5317 614.077 -34.5317 615.863Z" fill="#E128FF" fill-opacity="0.51"/>
<path d="M-34.5317 628.491C-34.5317 630.278 -35.9797 631.725 -37.7658 631.725C-39.552 631.725 -41 630.278 -41 628.491C-41 626.705 -39.552 625.257 -37.7658 625.257C-35.9797 625.257 -34.5317 626.705 -34.5317 628.491Z" fill="#E128FF" fill-opacity="0.51"/>
<path d="M-34.5317 641.12C-34.5317 642.906 -35.9797 644.354 -37.7658 644.354C-39.552 644.354 -41 642.906 -41 641.12C-41 639.334 -39.552 637.886 -37.7658 637.886C-35.9797 637.886 -34.5317 639.334 -34.5317 641.12Z" fill="#E128FF" fill-opacity="0.51"/>
<path d="M-34.5317 653.749C-34.5317 655.535 -35.9797 656.983 -37.7658 656.983C-39.552 656.983 -41 655.535 -41 653.749C-41 651.962 -39.552 650.514 -37.7658 650.514C-35.9797 650.514 -34.5317 651.962 -34.5317 653.749Z" fill="#E128FF" fill-opacity="0.51"/>
<path d="M-34.5317 666.377C-34.5317 668.163 -35.9797 669.611 -37.7658 669.611C-39.552 669.611 -41 668.163 -41 666.377C-41 664.591 -39.552 663.143 -37.7658 663.143C-35.9797 663.143 -34.5317 664.591 -34.5317 666.377Z" fill="#E128FF" fill-opacity="0.51"/>
<path d="M-34.5317 679.006C-34.5317 680.792 -35.9797 682.24 -37.7658 682.24C-39.552 682.24 -41 680.792 -41 679.006C-41 677.22 -39.552 675.772 -37.7658 675.772C-35.9797 675.772 -34.5317 677.22 -34.5317 679.006Z" fill="#E128FF" fill-opacity="0.51"/>
<path d="M-17.5909 603.234C-17.5909 605.02 -19.0389 606.468 -20.8251 606.468C-22.6113 606.468 -24.0592 605.02 -24.0592 603.234C-24.0592 601.448 -22.6113 600 -20.8251 600C-19.0389 600 -17.5909 601.448 -17.5909 603.234Z" fill="#E128FF" fill-opacity="0.51"/>
<path d="M-17.5909 615.863C-17.5909 617.649 -19.0389 619.097 -20.8251 619.097C-22.6113 619.097 -24.0592 617.649 -24.0592 615.863C-24.0592 614.077 -22.6113 612.629 -20.8251 612.629C-19.0389 612.629 -17.5909 614.077 -17.5909 615.863Z" fill="#E128FF" fill-opacity="0.51"/>
<path d="M-17.5909 628.491C-17.5909 630.278 -19.0389 631.725 -20.8251 631.725C-22.6113 631.725 -24.0592 630.278 -24.0592 628.491C-24.0592 626.705 -22.6113 625.257 -20.8251 625.257C-19.0389 625.257 -17.5909 626.705 -17.5909 628.491Z" fill="#E128FF" fill-opacity="0.51"/>
<path d="M-17.5909 641.12C-17.5909 642.906 -19.0389 644.354 -20.8251 644.354C-22.6113 644.354 -24.0592 642.906 -24.0592 641.12C-24.0592 639.334 -22.6113 637.886 -20.8251 637.886C-19.0389 637.886 -17.5909 639.334 -17.5909 641.12Z" fill="#E128FF" fill-opacity="0.51"/>
<path d="M-17.5909 653.749C-17.5909 655.535 -19.0389 656.983 -20.8251 656.983C-22.6113 656.983 -24.0592 655.535 -24.0592 653.749C-24.0592 651.962 -22.6113 650.514 -20.8251 650.514C-19.0389 650.514 -17.5909 651.962 -17.5909 653.749Z" fill="#E128FF" fill-opacity="0.51"/>
<path d="M-17.5909 666.377C-17.5909 668.163 -19.0389 669.611 -20.8251 669.611C-22.6113 669.611 -24.0592 668.163 -24.0592 666.377C-24.0592 664.591 -22.6113 663.143 -20.8251 663.143C-19.0389 663.143 -17.5909 664.591 -17.5909 666.377Z" fill="#E128FF" fill-opacity="0.51"/>
<path d="M-17.5909 679.006C-17.5909 680.792 -19.0389 682.24 -20.8251 682.24C-22.6113 682.24 -24.0592 680.792 -24.0592 679.006C-24.0592 677.22 -22.6113 675.772 -20.8251 675.772C-19.0389 675.772 -17.5909 677.22 -17.5909 679.006Z" fill="#E128FF" fill-opacity="0.51"/>
<path d="M-0.650166 603.234C-0.650166 605.02 -2.09814 606.468 -3.88432 606.468C-5.67049 606.468 -7.11847 605.02 -7.11847 603.234C-7.11847 601.448 -5.67049 600 -3.88432 600C-2.09814 600 -0.650166 601.448 -0.650166 603.234Z" fill="#E128FF" fill-opacity="0.51"/>
<path d="M-0.650166 615.863C-0.650166 617.649 -2.09814 619.097 -3.88432 619.097C-5.67049 619.097 -7.11847 617.649 -7.11847 615.863C-7.11847 614.077 -5.67049 612.629 -3.88432 612.629C-2.09814 612.629 -0.650166 614.077 -0.650166 615.863Z" fill="#E128FF" fill-opacity="0.51"/>
<path d="M-0.650166 628.491C-0.650166 630.278 -2.09814 631.725 -3.88432 631.725C-5.67049 631.725 -7.11847 630.278 -7.11847 628.491C-7.11847 626.705 -5.67049 625.257 -3.88432 625.257C-2.09814 625.257 -0.650166 626.705 -0.650166 628.491Z" fill="#E128FF" fill-opacity="0.51"/>
<path d="M-0.650166 641.12C-0.650166 642.906 -2.09814 644.354 -3.88432 644.354C-5.67049 644.354 -7.11847 642.906 -7.11847 641.12C-7.11847 639.334 -5.67049 637.886 -3.88432 637.886C-2.09814 637.886 -0.650166 639.334 -0.650166 641.12Z" fill="#E128FF" fill-opacity="0.51"/>
<path d="M-0.650166 653.749C-0.650166 655.535 -2.09814 656.983 -3.88432 656.983C-5.67049 656.983 -7.11847 655.535 -7.11847 653.749C-7.11847 651.962 -5.67049 650.514 -3.88432 650.514C-2.09814 650.514 -0.650166 651.962 -0.650166 653.749Z" fill="#E128FF" fill-opacity="0.51"/>
<path d="M-0.650166 666.377C-0.650166 668.163 -2.09814 669.611 -3.88432 669.611C-5.67049 669.611 -7.11847 668.163 -7.11847 666.377C-7.11847 664.591 -5.67049 663.143 -3.88432 663.143C-2.09814 663.143 -0.650166 664.591 -0.650166 666.377Z" fill="#E128FF" fill-opacity="0.51"/>
<path d="M-0.650166 679.006C-0.650166 680.792 -2.09814 682.24 -3.88432 682.24C-5.67049 682.24 -7.11847 680.792 -7.11847 679.006C-7.11847 677.22 -5.67049 675.772 -3.88432 675.772C-2.09814 675.772 -0.650166 677.22 -0.650166 679.006Z" fill="#E128FF" fill-opacity="0.51"/>
<path d="M16.2908 603.234C16.2908 605.02 14.8428 606.468 13.0566 606.468C11.2704 606.468 9.82246 605.02 9.82246 603.234C9.82246 601.448 11.2704 600 13.0566 600C14.8428 600 16.2908 601.448 16.2908 603.234Z" fill="#E128FF" fill-opacity="0.51"/>
<path d="M16.2908 615.863C16.2908 617.649 14.8428 619.097 13.0566 619.097C11.2704 619.097 9.82246 617.649 9.82246 615.863C9.82246 614.077 11.2704 612.629 13.0566 612.629C14.8428 612.629 16.2908 614.077 16.2908 615.863Z" fill="#E128FF" fill-opacity="0.51"/>
<path d="M16.2908 628.491C16.2908 630.278 14.8428 631.725 13.0566 631.725C11.2704 631.725 9.82246 630.278 9.82246 628.491C9.82246 626.705 11.2704 625.257 13.0566 625.257C14.8428 625.257 16.2908 626.705 16.2908 628.491Z" fill="#E128FF" fill-opacity="0.51"/>
<path d="M16.2908 641.12C16.2908 642.906 14.8428 644.354 13.0566 644.354C11.2704 644.354 9.82246 642.906 9.82246 641.12C9.82246 639.334 11.2704 637.886 13.0566 637.886C14.8428 637.886 16.2908 639.334 16.2908 641.12Z" fill="#E128FF" fill-opacity="0.51"/>
<path d="M16.2908 653.749C16.2908 655.535 14.8428 656.983 13.0566 656.983C11.2704 656.983 9.82246 655.535 9.82246 653.749C9.82246 651.962 11.2704 650.514 13.0566 650.514C14.8428 650.514 16.2908 651.962 16.2908 653.749Z" fill="#E128FF" fill-opacity="0.51"/>
<path d="M16.2908 666.377C16.2908 668.163 14.8428 669.611 13.0566 669.611C11.2704 669.611 9.82246 668.163 9.82246 666.377C9.82246 664.591 11.2704 663.143 13.0566 663.143C14.8428 663.143 16.2908 664.591 16.2908 666.377Z" fill="#E128FF" fill-opacity="0.51"/>
<path d="M16.2908 679.006C16.2908 680.792 14.8428 682.24 13.0566 682.24C11.2704 682.24 9.82246 680.792 9.82246 679.006C9.82246 677.22 11.2704 675.772 13.0566 675.772C14.8428 675.772 16.2908 677.22 16.2908 679.006Z" fill="#E128FF" fill-opacity="0.51"/>
<path d="M33.2315 603.234C33.2315 605.02 31.7835 606.468 29.9974 606.468C28.2112 606.468 26.7632 605.02 26.7632 603.234C26.7632 601.448 28.2112 600 29.9974 600C31.7835 600 33.2315 601.448 33.2315 603.234Z" fill="#E128FF" fill-opacity="0.51"/>
<path d="M33.2315 615.863C33.2315 617.649 31.7835 619.097 29.9974 619.097C28.2112 619.097 26.7632 617.649 26.7632 615.863C26.7632 614.077 28.2112 612.629 29.9974 612.629C31.7835 612.629 33.2315 614.077 33.2315 615.863Z" fill="#E128FF" fill-opacity="0.51"/>
<path d="M33.2315 628.491C33.2315 630.278 31.7835 631.725 29.9974 631.725C28.2112 631.725 26.7632 630.278 26.7632 628.491C26.7632 626.705 28.2112 625.257 29.9974 625.257C31.7835 625.257 33.2315 626.705 33.2315 628.491Z" fill="#E128FF" fill-opacity="0.51"/>
<path d="M33.2315 641.12C33.2315 642.906 31.7835 644.354 29.9974 644.354C28.2112 644.354 26.7632 642.906 26.7632 641.12C26.7632 639.334 28.2112 637.886 29.9974 637.886C31.7835 637.886 33.2315 639.334 33.2315 641.12Z" fill="#E128FF" fill-opacity="0.51"/>
<path d="M33.2315 653.749C33.2315 655.535 31.7835 656.983 29.9974 656.983C28.2112 656.983 26.7632 655.535 26.7632 653.749C26.7632 651.962 28.2112 650.514 29.9974 650.514C31.7835 650.514 33.2315 651.962 33.2315 653.749Z" fill="#E128FF" fill-opacity="0.51"/>
<path d="M33.2315 666.377C33.2315 668.163 31.7835 669.611 29.9974 669.611C28.2112 669.611 26.7632 668.163 26.7632 666.377C26.7632 664.591 28.2112 663.143 29.9974 663.143C31.7835 663.143 33.2315 664.591 33.2315 666.377Z" fill="#E128FF" fill-opacity="0.51"/>
<path d="M33.2315 679.006C33.2315 680.792 31.7835 682.24 29.9974 682.24C28.2112 682.24 26.7632 680.792 26.7632 679.006C26.7632 677.22 28.2112 675.772 29.9974 675.772C31.7835 675.772 33.2315 677.22 33.2315 679.006Z" fill="#E128FF" fill-opacity="0.51"/>
<path d="M50.1723 603.234C50.1723 605.02 48.7243 606.468 46.9381 606.468C45.152 606.468 43.704 605.02 43.704 603.234C43.704 601.448 45.152 600 46.9381 600C48.7243 600 50.1723 601.448 50.1723 603.234Z" fill="#E128FF" fill-opacity="0.51"/>
<path d="M50.1723 615.863C50.1723 617.649 48.7243 619.097 46.9381 619.097C45.152 619.097 43.704 617.649 43.704 615.863C43.704 614.077 45.152 612.629 46.9381 612.629C48.7243 612.629 50.1723 614.077 50.1723 615.863Z" fill="#E128FF" fill-opacity="0.51"/>
<path d="M50.1723 628.491C50.1723 630.278 48.7243 631.725 46.9381 631.725C45.152 631.725 43.704 630.278 43.704 628.491C43.704 626.705 45.152 625.257 46.9381 625.257C48.7243 625.257 50.1723 626.705 50.1723 628.491Z" fill="#E128FF" fill-opacity="0.51"/>
<path d="M50.1723 641.12C50.1723 642.906 48.7243 644.354 46.9381 644.354C45.152 644.354 43.704 642.906 43.704 641.12C43.704 639.334 45.152 637.886 46.9381 637.886C48.7243 637.886 50.1723 639.334 50.1723 641.12Z" fill="#E128FF" fill-opacity="0.51"/>
<path d="M50.1723 653.749C50.1723 655.535 48.7243 656.983 46.9381 656.983C45.152 656.983 43.704 655.535 43.704 653.749C43.704 651.962 45.152 650.514 46.9381 650.514C48.7243 650.514 50.1723 651.962 50.1723 653.749Z" fill="#E128FF" fill-opacity="0.51"/>
<path d="M50.1723 666.377C50.1723 668.163 48.7243 669.611 46.9381 669.611C45.152 669.611 43.704 668.163 43.704 666.377C43.704 664.591 45.152 663.143 46.9381 663.143C48.7243 663.143 50.1723 664.591 50.1723 666.377Z" fill="#E128FF" fill-opacity="0.51"/>
<path d="M50.1723 679.006C50.1723 680.792 48.7243 682.24 46.9381 682.24C45.152 682.24 43.704 680.792 43.704 679.006C43.704 677.22 45.152 675.772 46.9381 675.772C48.7243 675.772 50.1723 677.22 50.1723 679.006Z" fill="#E128FF" fill-opacity="0.51"/>
<path d="M320.468 3.23415C320.468 5.02032 319.02 6.4683 317.234 6.4683C315.448 6.4683 314 5.02032 314 3.23415C314 1.44798 315.448 0 317.234 0C319.02 0 320.468 1.44798 320.468 3.23415Z" fill="#E128FF" fill-opacity="0.51"/>
<path d="M320.468 15.8628C320.468 17.6489 319.02 19.0969 317.234 19.0969C315.448 19.0969 314 17.6489 314 15.8628C314 14.0766 315.448 12.6286 317.234 12.6286C319.02 12.6286 320.468 14.0766 320.468 15.8628Z" fill="#E128FF" fill-opacity="0.51"/>
<path d="M320.468 28.4913C320.468 30.2775 319.02 31.7255 317.234 31.7255C315.448 31.7255 314 30.2775 314 28.4913C314 26.7052 315.448 25.2572 317.234 25.2572C319.02 25.2572 320.468 26.7052 320.468 28.4913Z" fill="#E128FF" fill-opacity="0.51"/>
<path d="M320.468 41.1199C320.468 42.9061 319.02 44.3541 317.234 44.3541C315.448 44.3541 314 42.9061 314 41.1199C314 39.3338 315.448 37.8858 317.234 37.8858C319.02 37.8858 320.468 39.3338 320.468 41.1199Z" fill="#E128FF" fill-opacity="0.51"/>
<path d="M320.468 53.7485C320.468 55.5347 319.02 56.9827 317.234 56.9827C315.448 56.9827 314 55.5347 314 53.7485C314 51.9624 315.448 50.5144 317.234 50.5144C319.02 50.5144 320.468 51.9624 320.468 53.7485Z" fill="#E128FF" fill-opacity="0.51"/>
<path d="M320.468 66.3771C320.468 68.1633 319.02 69.6113 317.234 69.6113C315.448 69.6113 314 68.1633 314 66.3771C314 64.591 315.448 63.143 317.234 63.143C319.02 63.143 320.468 64.591 320.468 66.3771Z" fill="#E128FF" fill-opacity="0.51"/>
<path d="M320.468 79.0057C320.468 80.7919 319.02 82.2399 317.234 82.2399C315.448 82.2399 314 80.7919 314 79.0057C314 77.2195 315.448 75.7716 317.234 75.7716C319.02 75.7716 320.468 77.2195 320.468 79.0057Z" fill="#E128FF" fill-opacity="0.51"/>
<path d="M337.409 3.23415C337.409 5.02032 335.961 6.4683 334.175 6.4683C332.389 6.4683 330.941 5.02032 330.941 3.23415C330.941 1.44798 332.389 0 334.175 0C335.961 0 337.409 1.44798 337.409 3.23415Z" fill="#E128FF" fill-opacity="0.51"/>
<path d="M337.409 15.8628C337.409 17.6489 335.961 19.0969 334.175 19.0969C332.389 19.0969 330.941 17.6489 330.941 15.8628C330.941 14.0766 332.389 12.6286 334.175 12.6286C335.961 12.6286 337.409 14.0766 337.409 15.8628Z" fill="#E128FF" fill-opacity="0.51"/>
<path d="M337.409 28.4913C337.409 30.2775 335.961 31.7255 334.175 31.7255C332.389 31.7255 330.941 30.2775 330.941 28.4913C330.941 26.7052 332.389 25.2572 334.175 25.2572C335.961 25.2572 337.409 26.7052 337.409 28.4913Z" fill="#E128FF" fill-opacity="0.51"/>
<path d="M337.409 41.1199C337.409 42.9061 335.961 44.3541 334.175 44.3541C332.389 44.3541 330.941 42.9061 330.941 41.1199C330.941 39.3338 332.389 37.8858 334.175 37.8858C335.961 37.8858 337.409 39.3338 337.409 41.1199Z" fill="#E128FF" fill-opacity="0.51"/>
<path d="M337.409 53.7485C337.409 55.5347 335.961 56.9827 334.175 56.9827C332.389 56.9827 330.941 55.5347 330.941 53.7485C330.941 51.9624 332.389 50.5144 334.175 50.5144C335.961 50.5144 337.409 51.9624 337.409 53.7485Z" fill="#E128FF" fill-opacity="0.51"/>
<path d="M337.409 66.3771C337.409 68.1633 335.961 69.6113 334.175 69.6113C332.389 69.6113 330.941 68.1633 330.941 66.3771C330.941 64.591 332.389 63.143 334.175 63.143C335.961 63.143 337.409 64.591 337.409 66.3771Z" fill="#E128FF" fill-opacity="0.51"/>
<path d="M337.409 79.0057C337.409 80.7919 335.961 82.2399 334.175 82.2399C332.389 82.2399 330.941 80.7919 330.941 79.0057C330.941 77.2195 332.389 75.7716 334.175 75.7716C335.961 75.7716 337.409 77.2195 337.409 79.0057Z" fill="#E128FF" fill-opacity="0.51"/>
<path d="M354.35 3.23415C354.35 5.02032 352.902 6.4683 351.116 6.4683C349.33 6.4683 347.882 5.02032 347.882 3.23415C347.882 1.44798 349.33 0 351.116 0C352.902 0 354.35 1.44798 354.35 3.23415Z" fill="#E128FF" fill-opacity="0.51"/>
<path d="M354.35 15.8628C354.35 17.6489 352.902 19.0969 351.116 19.0969C349.33 19.0969 347.882 17.6489 347.882 15.8628C347.882 14.0766 349.33 12.6286 351.116 12.6286C352.902 12.6286 354.35 14.0766 354.35 15.8628Z" fill="#E128FF" fill-opacity="0.51"/>
<path d="M354.35 28.4913C354.35 30.2775 352.902 31.7255 351.116 31.7255C349.33 31.7255 347.882 30.2775 347.882 28.4913C347.882 26.7052 349.33 25.2572 351.116 25.2572C352.902 25.2572 354.35 26.7052 354.35 28.4913Z" fill="#E128FF" fill-opacity="0.51"/>
<path d="M354.35 41.1199C354.35 42.9061 352.902 44.3541 351.116 44.3541C349.33 44.3541 347.882 42.9061 347.882 41.1199C347.882 39.3338 349.33 37.8858 351.116 37.8858C352.902 37.8858 354.35 39.3338 354.35 41.1199Z" fill="#E128FF" fill-opacity="0.51"/>
<path d="M354.35 53.7485C354.35 55.5347 352.902 56.9827 351.116 56.9827C349.33 56.9827 347.882 55.5347 347.882 53.7485C347.882 51.9624 349.33 50.5144 351.116 50.5144C352.902 50.5144 354.35 51.9624 354.35 53.7485Z" fill="#E128FF" fill-opacity="0.51"/>
<path d="M354.35 66.3771C354.35 68.1633 352.902 69.6113 351.116 69.6113C349.33 69.6113 347.882 68.1633 347.882 66.3771C347.882 64.591 349.33 63.143 351.116 63.143C352.902 63.143 354.35 64.591 354.35 66.3771Z" fill="#E128FF" fill-opacity="0.51"/>
<path d="M354.35 79.0057C354.35 80.7919 352.902 82.2399 351.116 82.2399C349.33 82.2399 347.882 80.7919 347.882 79.0057C347.882 77.2195 349.33 75.7716 351.116 75.7716C352.902 75.7716 354.35 77.2195 354.35 79.0057Z" fill="#E128FF" fill-opacity="0.51"/>
<path d="M371.291 3.23415C371.291 5.02032 369.843 6.4683 368.057 6.4683C366.27 6.4683 364.822 5.02032 364.822 3.23415C364.822 1.44798 366.27 0 368.057 0C369.843 0 371.291 1.44798 371.291 3.23415Z" fill="#E128FF" fill-opacity="0.51"/>
<path d="M371.291 15.8628C371.291 17.6489 369.843 19.0969 368.057 19.0969C366.27 19.0969 364.822 17.6489 364.822 15.8628C364.822 14.0766 366.27 12.6286 368.057 12.6286C369.843 12.6286 371.291 14.0766 371.291 15.8628Z" fill="#E128FF" fill-opacity="0.51"/>
<path d="M371.291 28.4913C371.291 30.2775 369.843 31.7255 368.057 31.7255C366.27 31.7255 364.822 30.2775 364.822 28.4913C364.822 26.7052 366.27 25.2572 368.057 25.2572C369.843 25.2572 371.291 26.7052 371.291 28.4913Z" fill="#E128FF" fill-opacity="0.51"/>
<path d="M371.291 41.1199C371.291 42.9061 369.843 44.3541 368.057 44.3541C366.27 44.3541 364.822 42.9061 364.822 41.1199C364.822 39.3338 366.27 37.8858 368.057 37.8858C369.843 37.8858 371.291 39.3338 371.291 41.1199Z" fill="#E128FF" fill-opacity="0.51"/>
<path d="M371.291 53.7485C371.291 55.5347 369.843 56.9827 368.057 56.9827C366.27 56.9827 364.822 55.5347 364.822 53.7485C364.822 51.9624 366.27 50.5144 368.057 50.5144C369.843 50.5144 371.291 51.9624 371.291 53.7485Z" fill="#E128FF" fill-opacity="0.51"/>
<path d="M371.291 66.3771C371.291 68.1633 369.843 69.6113 368.057 69.6113C366.27 69.6113 364.822 68.1633 364.822 66.3771C364.822 64.591 366.27 63.143 368.057 63.143C369.843 63.143 371.291 64.591 371.291 66.3771Z" fill="#E128FF" fill-opacity="0.51"/>
<path d="M371.291 79.0057C371.291 80.7919 369.843 82.2399 368.057 82.2399C366.27 82.2399 364.822 80.7919 364.822 79.0057C364.822 77.2195 366.27 75.7716 368.057 75.7716C369.843 75.7716 371.291 77.2195 371.291 79.0057Z" fill="#E128FF" fill-opacity="0.51"/>
<path d="M388.232 3.23415C388.232 5.02032 386.784 6.4683 384.997 6.4683C383.211 6.4683 381.763 5.02032 381.763 3.23415C381.763 1.44798 383.211 0 384.997 0C386.784 0 388.232 1.44798 388.232 3.23415Z" fill="#E128FF" fill-opacity="0.51"/>
<path d="M388.232 15.8628C388.232 17.6489 386.784 19.0969 384.997 19.0969C383.211 19.0969 381.763 17.6489 381.763 15.8628C381.763 14.0766 383.211 12.6286 384.997 12.6286C386.784 12.6286 388.232 14.0766 388.232 15.8628Z" fill="#E128FF" fill-opacity="0.51"/>
<path d="M388.232 28.4913C388.232 30.2775 386.784 31.7255 384.997 31.7255C383.211 31.7255 381.763 30.2775 381.763 28.4913C381.763 26.7052 383.211 25.2572 384.997 25.2572C386.784 25.2572 388.232 26.7052 388.232 28.4913Z" fill="#E128FF" fill-opacity="0.51"/>
<path d="M388.232 41.1199C388.232 42.9061 386.784 44.3541 384.997 44.3541C383.211 44.3541 381.763 42.9061 381.763 41.1199C381.763 39.3338 383.211 37.8858 384.997 37.8858C386.784 37.8858 388.232 39.3338 388.232 41.1199Z" fill="#E128FF" fill-opacity="0.51"/>
<path d="M388.232 53.7485C388.232 55.5347 386.784 56.9827 384.997 56.9827C383.211 56.9827 381.763 55.5347 381.763 53.7485C381.763 51.9624 383.211 50.5144 384.997 50.5144C386.784 50.5144 388.232 51.9624 388.232 53.7485Z" fill="#E128FF" fill-opacity="0.51"/>
<path d="M388.232 66.3771C388.232 68.1633 386.784 69.6113 384.997 69.6113C383.211 69.6113 381.763 68.1633 381.763 66.3771C381.763 64.591 383.211 63.143 384.997 63.143C386.784 63.143 388.232 64.591 388.232 66.3771Z" fill="#E128FF" fill-opacity="0.51"/>
<path d="M388.232 79.0057C388.232 80.7919 386.784 82.2399 384.997 82.2399C383.211 82.2399 381.763 80.7919 381.763 79.0057C381.763 77.2195 383.211 75.7716 384.997 75.7716C386.784 75.7716 388.232 77.2195 388.232 79.0057Z" fill="#E128FF" fill-opacity="0.51"/>
<path d="M405.172 3.23415C405.172 5.02032 403.724 6.4683 401.938 6.4683C400.152 6.4683 398.704 5.02032 398.704 3.23415C398.704 1.44798 400.152 0 401.938 0C403.724 0 405.172 1.44798 405.172 3.23415Z" fill="#E128FF" fill-opacity="0.51"/>
<path d="M405.172 15.8628C405.172 17.6489 403.724 19.0969 401.938 19.0969C400.152 19.0969 398.704 17.6489 398.704 15.8628C398.704 14.0766 400.152 12.6286 401.938 12.6286C403.724 12.6286 405.172 14.0766 405.172 15.8628Z" fill="#E128FF" fill-opacity="0.51"/>
<path d="M405.172 28.4913C405.172 30.2775 403.724 31.7255 401.938 31.7255C400.152 31.7255 398.704 30.2775 398.704 28.4913C398.704 26.7052 400.152 25.2572 401.938 25.2572C403.724 25.2572 405.172 26.7052 405.172 28.4913Z" fill="#E128FF" fill-opacity="0.51"/>
<path d="M405.172 41.1199C405.172 42.9061 403.724 44.3541 401.938 44.3541C400.152 44.3541 398.704 42.9061 398.704 41.1199C398.704 39.3338 400.152 37.8858 401.938 37.8858C403.724 37.8858 405.172 39.3338 405.172 41.1199Z" fill="#E128FF" fill-opacity="0.51"/>
<path d="M405.172 53.7485C405.172 55.5347 403.724 56.9827 401.938 56.9827C400.152 56.9827 398.704 55.5347 398.704 53.7485C398.704 51.9624 400.152 50.5144 401.938 50.5144C403.724 50.5144 405.172 51.9624 405.172 53.7485Z" fill="#E128FF" fill-opacity="0.51"/>
<path d="M405.172 66.3771C405.172 68.1633 403.724 69.6113 401.938 69.6113C400.152 69.6113 398.704 68.1633 398.704 66.3771C398.704 64.591 400.152 63.143 401.938 63.143C403.724 63.143 405.172 64.591 405.172 66.3771Z" fill="#E128FF" fill-opacity="0.51"/>
<path d="M405.172 79.0057C405.172 80.7919 403.724 82.2399 401.938 82.2399C400.152 82.2399 398.704 80.7919 398.704 79.0057C398.704 77.2195 400.152 75.7716 401.938 75.7716C403.724 75.7716 405.172 77.2195 405.172 79.0057Z" fill="#E128FF" fill-opacity="0.51"/>
</svg>
