<svg width="1100" height="720" viewBox="0 0 1100 720" fill="none" xmlns="http://www.w3.org/2000/svg">
<path d="M649.703 731.353C621.647 712.372 587.139 638.984 673.56 497.28C781.586 320.149 823.126 234.722 825.625 104.803C828.123 -25.1167 856.059 -99.0344 918.616 -135.206" stroke="#646464" stroke-width="0.5"/>
<path d="M663.036 741.362C634.98 722.382 600.473 648.994 686.894 507.289C794.92 330.159 836.46 244.732 838.958 114.813C841.457 -15.1069 869.392 -89.0246 931.95 -125.196" stroke="#646464" stroke-width="0.5"/>
<path d="M676.369 751.373C648.313 732.392 613.806 659.004 700.227 517.3C808.252 340.17 849.793 254.743 852.291 124.823C854.79 -5.09639 882.725 -79.0141 945.283 -115.186" stroke="#646464" stroke-width="0.5"/>
<path d="M689.702 761.383C661.646 742.402 627.139 669.014 713.56 527.31C821.586 350.18 863.126 264.753 865.624 134.833C868.123 4.91362 896.058 -69.0041 958.616 -105.176" stroke="#646464" stroke-width="0.5"/>
<path d="M703.035 771.393C674.979 752.413 640.472 679.025 726.893 537.32C834.918 360.19 876.459 274.763 878.957 144.844C881.456 14.9241 909.391 -58.9936 971.949 -95.1654" stroke="#646464" stroke-width="0.5"/>
<path d="M716.369 781.403C688.313 762.422 653.805 689.035 740.226 547.33C848.252 370.2 889.792 284.773 892.291 154.853C894.789 24.9339 922.725 -48.9838 985.282 -85.1556" stroke="#646464" stroke-width="0.5"/>
<path d="M729.702 791.414C701.646 772.433 667.139 699.045 753.559 557.341C861.585 380.21 903.126 294.783 905.624 164.864C908.122 34.9444 936.058 -38.9733 998.615 -75.1452" stroke="#646464" stroke-width="0.5"/>
<path d="M743.035 801.424C714.979 782.443 680.472 709.056 766.892 567.351C874.918 390.221 916.459 304.794 918.957 174.874C921.455 44.9549 949.391 -28.9628 1011.95 -65.1347" stroke="#646464" stroke-width="0.5"/>
<path d="M756.368 811.434C728.311 792.453 693.804 719.066 780.225 577.361C888.251 400.231 929.791 314.804 932.29 184.884C934.788 54.9649 962.723 -18.9528 1025.28 -55.1246" stroke="#646464" stroke-width="0.5"/>
<path d="M769.701 821.444C741.645 802.463 707.137 729.075 793.558 587.371C901.584 410.241 943.124 324.814 945.623 194.894C948.121 64.9747 976.057 -8.94307 1038.61 -45.1149" stroke="#646464" stroke-width="0.5"/>
<path d="M783.034 831.455C754.978 812.474 720.471 739.086 806.891 597.382C914.917 420.251 956.458 334.824 958.956 204.905C961.455 74.9852 989.39 1.06743 1051.95 -35.1044" stroke="#646464" stroke-width="0.5"/>
<path d="M796.367 841.465C768.311 822.484 733.804 749.096 820.225 607.392C928.25 430.261 969.791 344.834 972.289 214.915C974.788 84.9952 1002.72 11.0774 1065.28 -25.0944" stroke="#646464" stroke-width="0.5"/>
<path d="M809.7 851.476C781.644 832.495 747.137 759.107 833.558 617.402C941.584 440.272 983.124 354.845 985.622 224.926C988.121 95.0062 1016.06 21.0884 1078.61 -15.0834" stroke="#646464" stroke-width="0.5"/>
<path d="M823.033 861.485C794.977 842.504 760.47 769.117 846.891 627.412C954.917 450.282 996.457 364.855 998.956 234.935C1001.45 105.016 1029.39 31.0982 1091.95 -5.07362" stroke="#646464" stroke-width="0.5"/>
<path d="M836.366 871.495C808.31 852.514 773.803 779.127 860.224 637.422C968.25 460.292 1009.79 374.865 1012.29 244.945C1014.79 115.026 1042.72 41.1082 1105.28 4.93639" stroke="#646464" stroke-width="0.5"/>
<path d="M849.699 881.505C821.643 862.524 787.136 789.137 873.557 647.432C981.583 470.302 1023.12 384.875 1025.62 254.955C1028.12 125.036 1056.06 51.1182 1118.61 14.9464" stroke="#646464" stroke-width="0.5"/>
<path d="M863.033 891.516C834.977 872.535 800.47 799.148 886.89 657.443C994.916 480.313 1036.46 394.886 1038.95 264.966C1041.45 135.047 1069.39 61.1292 1131.95 24.9574" stroke="#646464" stroke-width="0.5"/>
<path d="M876.366 901.526C848.31 882.545 813.803 809.157 900.223 667.453C1008.25 490.323 1049.79 404.896 1052.29 274.976C1054.79 145.057 1082.72 71.139 1145.28 34.9672" stroke="#646464" stroke-width="0.5"/>
<path d="M889.699 911.537C861.643 892.556 827.136 819.168 913.556 677.464C1021.58 500.333 1063.12 414.906 1065.62 284.987C1068.12 155.067 1096.05 81.1495 1158.61 44.9777" stroke="#646464" stroke-width="0.5"/>
<path d="M903.032 921.547C874.976 902.566 840.469 829.178 926.889 687.474C1034.92 510.343 1076.46 424.916 1078.95 294.997C1081.45 165.077 1109.39 91.1595 1171.95 54.9877" stroke="#646464" stroke-width="0.5"/>
<path d="M916.365 931.557C888.309 912.576 853.802 839.188 940.223 697.484C1048.25 520.354 1089.79 434.927 1092.29 305.007C1094.79 175.088 1122.72 101.17 1185.28 64.9982" stroke="#646464" stroke-width="0.5"/>
<path d="M929.698 941.567C901.642 922.586 867.135 849.198 953.555 707.494C1061.58 530.363 1103.12 444.937 1105.62 315.017C1108.12 185.097 1136.05 111.18 1198.61 75.0079" stroke="#646464" stroke-width="0.5"/>
<path d="M943.031 951.577C914.975 932.596 880.468 859.209 966.889 717.504C1074.91 540.374 1116.46 454.947 1118.95 325.027C1121.45 195.108 1149.39 121.19 1211.94 85.0184" stroke="#646464" stroke-width="0.5"/>
<path d="M956.365 961.587C928.308 942.606 893.801 869.219 980.222 727.514C1088.25 550.384 1129.79 464.957 1132.29 335.037C1134.79 205.118 1162.72 131.2 1225.28 95.0284" stroke="#646464" stroke-width="0.5"/>
<path d="M969.698 971.597C941.642 952.616 907.134 879.228 993.555 737.524C1101.58 560.394 1143.12 474.967 1145.62 345.047C1148.12 215.128 1176.05 141.21 1238.61 105.038" stroke="#646464" stroke-width="0.5"/>
<path d="M983.031 981.608C954.974 962.627 920.467 889.239 1006.89 747.535C1114.91 570.405 1156.45 484.978 1158.95 355.058C1161.45 225.139 1189.39 151.221 1251.94 115.049" stroke="#646464" stroke-width="0.5"/>
<path d="M996.364 991.618C968.308 972.637 933.8 899.249 1020.22 757.545C1128.25 580.415 1169.79 494.988 1172.29 365.068C1174.78 235.149 1202.72 161.231 1265.28 125.059" stroke="#646464" stroke-width="0.5"/>
<path d="M-185.193 797.52C-215.939 783.303 -261.81 716.428 -199.33 562.659C-121.229 370.448 -93.9836 279.448 -112.434 150.821C-130.884 22.194 -115.212 -55.2569 -59.2943 -101.028" stroke="#646464" stroke-width="0.5"/>
<path d="M-170.422 805.253C-201.168 791.036 -247.04 724.161 -184.559 570.392C-106.459 378.181 -79.2129 287.181 -97.6628 158.554C-116.113 29.9269 -100.442 -47.5239 -44.5236 -93.295" stroke="#646464" stroke-width="0.5"/>
<path d="M-155.652 812.986C-186.398 798.769 -232.269 731.894 -169.789 578.125C-91.6883 385.914 -64.4424 294.914 -82.8924 166.287C-101.342 37.6598 -85.6713 -39.791 -29.7531 -85.5621" stroke="#646464" stroke-width="0.5"/>
<path d="M-140.881 820.719C-171.627 806.502 -217.498 739.627 -155.018 585.858C-76.9175 393.647 -49.6717 302.647 -68.1216 174.02C-86.5716 45.3927 -70.9005 -32.0581 -14.9824 -77.8292" stroke="#646464" stroke-width="0.5"/>
<path d="M-126.11 828.452C-156.856 814.236 -202.727 747.36 -140.247 593.592C-62.1464 401.381 -34.9006 310.381 -53.3505 181.753C-71.8005 53.1264 -56.1294 -24.3245 -0.211255 -70.0956" stroke="#646464" stroke-width="0.5"/>
<path d="M-111.339 836.185C-142.085 821.969 -187.957 755.093 -125.476 601.325C-47.3757 409.114 -20.1299 318.113 -38.5798 189.486C-57.0298 60.8593 -41.3587 -16.5916 14.5594 -62.3627" stroke="#646464" stroke-width="0.5"/>
<path d="M-96.5686 843.919C-127.314 829.702 -173.186 762.827 -110.706 609.058C-32.6052 416.847 -5.35938 325.847 -23.8093 197.22C-42.2593 68.5927 -26.5882 -8.85817 29.3299 -54.6293" stroke="#646464" stroke-width="0.5"/>
<path d="M-81.7978 851.651C-112.544 837.435 -158.415 770.56 -95.935 616.791C-17.8344 424.58 9.41137 333.58 -9.03856 204.953C-27.4885 76.3256 -11.8175 -1.12526 44.1007 -46.8964" stroke="#646464" stroke-width="0.5"/>
<path d="M-67.0268 859.385C-97.7727 845.168 -143.644 778.293 -81.1639 624.524C-3.06339 432.313 24.1824 341.313 5.73249 212.686C-12.7174 84.059 2.95359 6.60814 58.8718 -39.163" stroke="#646464" stroke-width="0.5"/>
<path d="M-52.2566 867.118C-83.0025 852.901 -128.874 786.026 -66.3937 632.257C11.7068 440.046 38.9526 349.046 20.5027 220.419C2.05276 91.7919 17.7238 14.341 73.642 -31.43" stroke="#646464" stroke-width="0.5"/>
<path d="M-37.4855 874.851C-68.2314 860.635 -114.103 793.759 -51.6227 639.991C26.4779 447.78 53.7237 356.779 35.2738 228.152C16.8238 99.5253 32.4948 22.0744 88.413 -23.6966" stroke="#646464" stroke-width="0.5"/>
<path d="M-22.7148 882.584C-53.4607 868.367 -99.3324 801.492 -36.852 647.723C41.2486 455.512 68.4944 364.512 50.0444 235.885C31.5945 107.258 47.2655 29.8071 103.184 -15.964" stroke="#646464" stroke-width="0.5"/>
<path d="M-7.94408 890.317C-38.69 876.1 -84.5617 809.225 -22.0812 655.456C56.0193 463.245 83.2651 372.245 64.8152 243.618C46.3653 114.991 62.0363 37.54 117.954 -8.23107" stroke="#646464" stroke-width="0.5"/>
<path d="M6.82655 898.051C-23.9193 883.834 -69.791 816.959 -7.31059 663.19C70.7899 470.979 98.0358 379.979 79.5858 251.352C61.1359 122.725 76.8069 45.2739 132.725 -0.497187" stroke="#646464" stroke-width="0.5"/>
<path d="M21.5972 905.784C-9.14865 891.567 -55.0203 824.692 7.4601 670.923C85.5606 478.712 112.806 387.712 94.3565 259.085C75.9066 130.458 91.5776 53.0068 147.496 7.23572" stroke="#646464" stroke-width="0.5"/>
</svg>
