<svg width="1124" height="932" viewBox="0 0 1124 932" fill="none" xmlns="http://www.w3.org/2000/svg">
<path d="M148.386 318.661C-27.3384 222.888 -130.498 -46.4964 335.34 -52.3923C365.695 -52.7765 909.389 -186.276 923.177 -198.412L1009.76 -219.92C1032.85 -218.657 1023.91 -252.755 1052.32 -144.358L1103.71 51.7479L1155.1 247.854C1170.82 307.825 1234.24 447.544 1279.48 620.168C1310.96 740.3 1112.67 760.657 962.814 797.883C834.408 829.779 688.155 985.08 461.801 892.189C142.936 761.333 433.825 474.229 148.386 318.661Z" fill="#EBF1FF"/>
<path d="M337.327 272.092C240.044 124.669 188.609 -128.486 568.042 -27.2246C592.768 -20.6261 1062.56 -19.1912 1076.33 -27.2243H1151.2C1169.67 -20.7714 1169.67 -54.2589 1169.67 52.1965V244.792V437.387C1169.67 496.285 1191.43 613.27 1191.43 809.176C1191.43 901.116 928.937 929.718 905.561 930.583C860.269 932.258 670.337 942.915 542.741 840.938C366.162 699.813 434.138 418.802 337.327 272.092Z" fill="#0B4EDE"/>
</svg>
