<svg width="360" height="381" viewBox="0 0 360 381" fill="none" xmlns="http://www.w3.org/2000/svg">
<path d="M8.22725 122.707C-56.1226 87.635 -93.8993 -11.0129 76.689 -13.1719C87.8052 -13.3126 286.904 -62.1996 291.953 -66.6441L323.661 -74.5203C332.114 -74.0574 328.842 -86.544 339.244 -46.8497L358.064 24.9639L376.884 96.7775C382.639 118.739 405.865 169.903 422.431 233.118C433.96 277.109 361.346 284.564 306.468 298.196C259.447 309.876 205.889 366.747 122.999 332.731C6.23119 284.812 112.754 179.675 8.22725 122.707Z" fill="#EBF1FF"/>
<path d="M119.767 98.5213C89.5571 42.9858 73.5846 -52.3794 191.413 -14.2335C199.091 -11.7478 344.978 -11.2072 349.256 -14.2334H372.505C378.242 -11.8025 378.242 -24.4175 378.242 15.685V88.237V160.789C378.242 182.976 385 227.045 385 300.844C385 335.479 303.485 346.253 296.226 346.579C282.161 347.21 223.179 351.225 183.556 312.809C128.721 259.647 149.831 153.788 119.767 98.5213Z" fill="#0B4EDE"/>
</svg>
