<svg width="107" height="377" viewBox="0 0 107 377" fill="none" xmlns="http://www.w3.org/2000/svg">
<path d="M377 188.5C377 292.606 292.606 377 188.5 377C84.3943 377 0 292.606 0 188.5C0 84.3943 84.3943 0 188.5 0C292.606 0 377 84.3943 377 188.5ZM38.374 188.5C38.374 271.412 105.588 338.626 188.5 338.626C271.412 338.626 338.626 271.412 338.626 188.5C338.626 105.588 271.412 38.374 188.5 38.374C105.588 38.374 38.374 105.588 38.374 188.5Z" fill="#EEEEFF"/>
<path d="M307 195.5C307 260.946 253.946 314 188.5 314C123.054 314 70 260.946 70 195.5C70 130.054 123.054 77 188.5 77C253.946 77 307 130.054 307 195.5ZM91.4111 195.5C91.4111 249.121 134.879 292.589 188.5 292.589C242.121 292.589 285.589 249.121 285.589 195.5C285.589 141.879 242.121 98.4111 188.5 98.4111C134.879 98.4111 91.4111 141.879 91.4111 195.5Z" fill="#EEEEFF"/>
</svg>
