<svg width="312" height="406" viewBox="0 0 312 406" fill="none" xmlns="http://www.w3.org/2000/svg">
<path d="M-81.9289 -87.5309C-81.9289 -83.9581 -84.8252 -81.0618 -88.398 -81.0618C-91.9708 -81.0618 -94.8671 -83.9581 -94.8671 -87.5309C-94.8671 -91.1037 -91.9708 -94 -88.398 -94C-84.8252 -94 -81.9289 -91.1037 -81.9289 -87.5309Z" fill="#F7F7F7" fill-opacity="0.51"/>
<path d="M-81.9289 -62.2706C-81.9289 -58.6978 -84.8252 -55.8015 -88.398 -55.8015C-91.9708 -55.8015 -94.8671 -58.6978 -94.8671 -62.2706C-94.8671 -65.8434 -91.9708 -68.7397 -88.398 -68.7397C-84.8252 -68.7397 -81.9289 -65.8434 -81.9289 -62.2706Z" fill="#F7F7F7" fill-opacity="0.51"/>
<path d="M-81.9289 -37.0103C-81.9289 -33.4375 -84.8252 -30.5412 -88.398 -30.5412C-91.9708 -30.5412 -94.8671 -33.4375 -94.8671 -37.0103C-94.8671 -40.5831 -91.9708 -43.4794 -88.398 -43.4794C-84.8252 -43.4794 -81.9289 -40.5831 -81.9289 -37.0103Z" fill="#F7F7F7" fill-opacity="0.51"/>
<path d="M-81.9289 -11.75C-81.9289 -8.17721 -84.8252 -5.2809 -88.398 -5.2809C-91.9708 -5.2809 -94.8671 -8.17721 -94.8671 -11.75C-94.8671 -15.3228 -91.9708 -18.2191 -88.398 -18.2191C-84.8252 -18.2191 -81.9289 -15.3228 -81.9289 -11.75Z" fill="#F7F7F7" fill-opacity="0.51"/>
<path d="M-81.9289 13.5103C-81.9289 17.0831 -84.8252 19.9794 -88.398 19.9794C-91.9708 19.9794 -94.8671 17.0831 -94.8671 13.5103C-94.8671 9.93751 -91.9708 7.0412 -88.398 7.0412C-84.8252 7.0412 -81.9289 9.93751 -81.9289 13.5103Z" fill="#F7F7F7" fill-opacity="0.51"/>
<path d="M-81.9289 38.7706C-81.9289 42.3434 -84.8252 45.2397 -88.398 45.2397C-91.9708 45.2397 -94.8671 42.3434 -94.8671 38.7706C-94.8671 35.1978 -91.9708 32.3015 -88.398 32.3015C-84.8252 32.3015 -81.9289 35.1978 -81.9289 38.7706Z" fill="#F7F7F7" fill-opacity="0.51"/>
<path d="M-81.9289 64.0309C-81.9289 67.6037 -84.8252 70.5 -88.398 70.5C-91.9708 70.5 -94.8671 67.6037 -94.8671 64.0309C-94.8671 60.4581 -91.9708 57.5618 -88.398 57.5618C-84.8252 57.5618 -81.9289 60.4581 -81.9289 64.0309Z" fill="#F7F7F7" fill-opacity="0.51"/>
<path d="M-48.0431 -87.5309C-48.0431 -83.9581 -50.9394 -81.0618 -54.5122 -81.0618C-58.085 -81.0618 -60.9813 -83.9581 -60.9813 -87.5309C-60.9813 -91.1037 -58.085 -94 -54.5122 -94C-50.9394 -94 -48.0431 -91.1037 -48.0431 -87.5309Z" fill="#F7F7F7" fill-opacity="0.51"/>
<path d="M-48.0431 -62.2706C-48.0431 -58.6978 -50.9394 -55.8015 -54.5122 -55.8015C-58.085 -55.8015 -60.9813 -58.6978 -60.9813 -62.2706C-60.9813 -65.8434 -58.085 -68.7397 -54.5122 -68.7397C-50.9394 -68.7397 -48.0431 -65.8434 -48.0431 -62.2706Z" fill="#F7F7F7" fill-opacity="0.51"/>
<path d="M-48.0431 -37.0103C-48.0431 -33.4375 -50.9394 -30.5412 -54.5122 -30.5412C-58.085 -30.5412 -60.9813 -33.4375 -60.9813 -37.0103C-60.9813 -40.5831 -58.085 -43.4794 -54.5122 -43.4794C-50.9394 -43.4794 -48.0431 -40.5831 -48.0431 -37.0103Z" fill="#F7F7F7" fill-opacity="0.51"/>
<path d="M-48.0431 -11.75C-48.0431 -8.17721 -50.9394 -5.2809 -54.5122 -5.2809C-58.085 -5.2809 -60.9813 -8.17721 -60.9813 -11.75C-60.9813 -15.3228 -58.085 -18.2191 -54.5122 -18.2191C-50.9394 -18.2191 -48.0431 -15.3228 -48.0431 -11.75Z" fill="#F7F7F7" fill-opacity="0.51"/>
<path d="M-48.0431 13.5103C-48.0431 17.0831 -50.9394 19.9794 -54.5122 19.9794C-58.085 19.9794 -60.9813 17.0831 -60.9813 13.5103C-60.9813 9.93751 -58.085 7.0412 -54.5122 7.0412C-50.9394 7.0412 -48.0431 9.93751 -48.0431 13.5103Z" fill="#F7F7F7" fill-opacity="0.51"/>
<path d="M-48.0431 38.7706C-48.0431 42.3434 -50.9394 45.2397 -54.5122 45.2397C-58.085 45.2397 -60.9813 42.3434 -60.9813 38.7706C-60.9813 35.1978 -58.085 32.3015 -54.5122 32.3015C-50.9394 32.3015 -48.0431 35.1978 -48.0431 38.7706Z" fill="#F7F7F7" fill-opacity="0.51"/>
<path d="M-48.0431 64.0309C-48.0431 67.6037 -50.9394 70.5 -54.5122 70.5C-58.085 70.5 -60.9813 67.6037 -60.9813 64.0309C-60.9813 60.4581 -58.085 57.5618 -54.5122 57.5618C-50.9394 57.5618 -48.0431 60.4581 -48.0431 64.0309Z" fill="#F7F7F7" fill-opacity="0.51"/>
<path d="M-14.1573 -87.5309C-14.1573 -83.9581 -17.0536 -81.0618 -20.6264 -81.0618C-24.1992 -81.0618 -27.0955 -83.9581 -27.0955 -87.5309C-27.0955 -91.1037 -24.1992 -94 -20.6264 -94C-17.0536 -94 -14.1573 -91.1037 -14.1573 -87.5309Z" fill="#F7F7F7" fill-opacity="0.51"/>
<path d="M-14.1573 -62.2706C-14.1573 -58.6978 -17.0536 -55.8015 -20.6264 -55.8015C-24.1992 -55.8015 -27.0955 -58.6978 -27.0955 -62.2706C-27.0955 -65.8434 -24.1992 -68.7397 -20.6264 -68.7397C-17.0536 -68.7397 -14.1573 -65.8434 -14.1573 -62.2706Z" fill="#F7F7F7" fill-opacity="0.51"/>
<path d="M-14.1573 -37.0103C-14.1573 -33.4375 -17.0536 -30.5412 -20.6264 -30.5412C-24.1992 -30.5412 -27.0955 -33.4375 -27.0955 -37.0103C-27.0955 -40.5831 -24.1992 -43.4794 -20.6264 -43.4794C-17.0536 -43.4794 -14.1573 -40.5831 -14.1573 -37.0103Z" fill="#F7F7F7" fill-opacity="0.51"/>
<path d="M-14.1573 -11.75C-14.1573 -8.17721 -17.0536 -5.2809 -20.6264 -5.2809C-24.1992 -5.2809 -27.0955 -8.17721 -27.0955 -11.75C-27.0955 -15.3228 -24.1992 -18.2191 -20.6264 -18.2191C-17.0536 -18.2191 -14.1573 -15.3228 -14.1573 -11.75Z" fill="#F7F7F7" fill-opacity="0.51"/>
<path d="M-14.1573 13.5103C-14.1573 17.0831 -17.0536 19.9794 -20.6264 19.9794C-24.1992 19.9794 -27.0955 17.0831 -27.0955 13.5103C-27.0955 9.93751 -24.1992 7.0412 -20.6264 7.0412C-17.0536 7.0412 -14.1573 9.93751 -14.1573 13.5103Z" fill="#F7F7F7" fill-opacity="0.51"/>
<path d="M-14.1573 38.7706C-14.1573 42.3434 -17.0536 45.2397 -20.6264 45.2397C-24.1992 45.2397 -27.0955 42.3434 -27.0955 38.7706C-27.0955 35.1978 -24.1992 32.3015 -20.6264 32.3015C-17.0536 32.3015 -14.1573 35.1978 -14.1573 38.7706Z" fill="#F7F7F7" fill-opacity="0.51"/>
<path d="M-14.1573 64.0309C-14.1573 67.6037 -17.0536 70.5 -20.6264 70.5C-24.1992 70.5 -27.0955 67.6037 -27.0955 64.0309C-27.0955 60.4581 -24.1992 57.5618 -20.6264 57.5618C-17.0536 57.5618 -14.1573 60.4581 -14.1573 64.0309Z" fill="#F7F7F7" fill-opacity="0.51"/>
<path d="M19.7284 -87.5309C19.7284 -83.9581 16.8321 -81.0618 13.2593 -81.0618C9.68655 -81.0618 6.79024 -83.9581 6.79024 -87.5309C6.79024 -91.1037 9.68655 -94 13.2593 -94C16.8321 -94 19.7284 -91.1037 19.7284 -87.5309Z" fill="#F7F7F7" fill-opacity="0.51"/>
<path d="M19.7284 -62.2706C19.7284 -58.6978 16.8321 -55.8015 13.2593 -55.8015C9.68655 -55.8015 6.79024 -58.6978 6.79024 -62.2706C6.79024 -65.8434 9.68655 -68.7397 13.2593 -68.7397C16.8321 -68.7397 19.7284 -65.8434 19.7284 -62.2706Z" fill="#F7F7F7" fill-opacity="0.51"/>
<path d="M19.7284 -37.0103C19.7284 -33.4375 16.8321 -30.5412 13.2593 -30.5412C9.68655 -30.5412 6.79024 -33.4375 6.79024 -37.0103C6.79024 -40.5831 9.68655 -43.4794 13.2593 -43.4794C16.8321 -43.4794 19.7284 -40.5831 19.7284 -37.0103Z" fill="#F7F7F7" fill-opacity="0.51"/>
<path d="M19.7284 -11.75C19.7284 -8.17721 16.8321 -5.2809 13.2593 -5.2809C9.68655 -5.2809 6.79024 -8.17721 6.79024 -11.75C6.79024 -15.3228 9.68655 -18.2191 13.2593 -18.2191C16.8321 -18.2191 19.7284 -15.3228 19.7284 -11.75Z" fill="#F7F7F7" fill-opacity="0.51"/>
<path d="M19.7284 13.5103C19.7284 17.0831 16.8321 19.9794 13.2593 19.9794C9.68655 19.9794 6.79024 17.0831 6.79024 13.5103C6.79024 9.93751 9.68655 7.0412 13.2593 7.0412C16.8321 7.0412 19.7284 9.93751 19.7284 13.5103Z" fill="#F7F7F7" fill-opacity="0.51"/>
<path d="M19.7284 38.7706C19.7284 42.3434 16.8321 45.2397 13.2593 45.2397C9.68655 45.2397 6.79024 42.3434 6.79024 38.7706C6.79024 35.1978 9.68655 32.3015 13.2593 32.3015C16.8321 32.3015 19.7284 35.1978 19.7284 38.7706Z" fill="#F7F7F7" fill-opacity="0.51"/>
<path d="M19.7284 64.0309C19.7284 67.6037 16.8321 70.5 13.2593 70.5C9.68655 70.5 6.79024 67.6037 6.79024 64.0309C6.79024 60.4581 9.68655 57.5618 13.2593 57.5618C16.8321 57.5618 19.7284 60.4581 19.7284 64.0309Z" fill="#F7F7F7" fill-opacity="0.51"/>
<path d="M53.6142 -87.5309C53.6142 -83.9581 50.7179 -81.0618 47.1451 -81.0618C43.5723 -81.0618 40.676 -83.9581 40.676 -87.5309C40.676 -91.1037 43.5723 -94 47.1451 -94C50.7179 -94 53.6142 -91.1037 53.6142 -87.5309Z" fill="#F7F7F7" fill-opacity="0.51"/>
<path d="M53.6142 -62.2706C53.6142 -58.6978 50.7179 -55.8015 47.1451 -55.8015C43.5723 -55.8015 40.676 -58.6978 40.676 -62.2706C40.676 -65.8434 43.5723 -68.7397 47.1451 -68.7397C50.7179 -68.7397 53.6142 -65.8434 53.6142 -62.2706Z" fill="#F7F7F7" fill-opacity="0.51"/>
<path d="M53.6142 -37.0103C53.6142 -33.4375 50.7179 -30.5412 47.1451 -30.5412C43.5723 -30.5412 40.676 -33.4375 40.676 -37.0103C40.676 -40.5831 43.5723 -43.4794 47.1451 -43.4794C50.7179 -43.4794 53.6142 -40.5831 53.6142 -37.0103Z" fill="#F7F7F7" fill-opacity="0.51"/>
<path d="M53.6142 -11.75C53.6142 -8.17721 50.7179 -5.2809 47.1451 -5.2809C43.5723 -5.2809 40.676 -8.17721 40.676 -11.75C40.676 -15.3228 43.5723 -18.2191 47.1451 -18.2191C50.7179 -18.2191 53.6142 -15.3228 53.6142 -11.75Z" fill="#F7F7F7" fill-opacity="0.51"/>
<path d="M53.6142 13.5103C53.6142 17.0831 50.7179 19.9794 47.1451 19.9794C43.5723 19.9794 40.676 17.0831 40.676 13.5103C40.676 9.93751 43.5723 7.0412 47.1451 7.0412C50.7179 7.0412 53.6142 9.93751 53.6142 13.5103Z" fill="#F7F7F7" fill-opacity="0.51"/>
<path d="M53.6142 38.7706C53.6142 42.3434 50.7179 45.2397 47.1451 45.2397C43.5723 45.2397 40.676 42.3434 40.676 38.7706C40.676 35.1978 43.5723 32.3015 47.1451 32.3015C50.7179 32.3015 53.6142 35.1978 53.6142 38.7706Z" fill="#F7F7F7" fill-opacity="0.51"/>
<path d="M53.6142 64.0309C53.6142 67.6037 50.7179 70.5 47.1451 70.5C43.5723 70.5 40.676 67.6037 40.676 64.0309C40.676 60.4581 43.5723 57.5618 47.1451 57.5618C50.7179 57.5618 53.6142 60.4581 53.6142 64.0309Z" fill="#F7F7F7" fill-opacity="0.51"/>
<path d="M87.5 -87.5309C87.5 -83.9581 84.6037 -81.0618 81.0309 -81.0618C77.4581 -81.0618 74.5618 -83.9581 74.5618 -87.5309C74.5618 -91.1037 77.4581 -94 81.0309 -94C84.6037 -94 87.5 -91.1037 87.5 -87.5309Z" fill="#F7F7F7" fill-opacity="0.51"/>
<path d="M87.5 -62.2706C87.5 -58.6978 84.6037 -55.8015 81.0309 -55.8015C77.4581 -55.8015 74.5618 -58.6978 74.5618 -62.2706C74.5618 -65.8434 77.4581 -68.7397 81.0309 -68.7397C84.6037 -68.7397 87.5 -65.8434 87.5 -62.2706Z" fill="#F7F7F7" fill-opacity="0.51"/>
<path d="M87.5 -37.0103C87.5 -33.4375 84.6037 -30.5412 81.0309 -30.5412C77.4581 -30.5412 74.5618 -33.4375 74.5618 -37.0103C74.5618 -40.5831 77.4581 -43.4794 81.0309 -43.4794C84.6037 -43.4794 87.5 -40.5831 87.5 -37.0103Z" fill="#F7F7F7" fill-opacity="0.51"/>
<path d="M87.5 -11.75C87.5 -8.17721 84.6037 -5.2809 81.0309 -5.2809C77.4581 -5.2809 74.5618 -8.17721 74.5618 -11.75C74.5618 -15.3228 77.4581 -18.2191 81.0309 -18.2191C84.6037 -18.2191 87.5 -15.3228 87.5 -11.75Z" fill="#F7F7F7" fill-opacity="0.51"/>
<path d="M87.5 13.5103C87.5 17.0831 84.6037 19.9794 81.0309 19.9794C77.4581 19.9794 74.5618 17.0831 74.5618 13.5103C74.5618 9.93751 77.4581 7.0412 81.0309 7.0412C84.6037 7.0412 87.5 9.93751 87.5 13.5103Z" fill="#F7F7F7" fill-opacity="0.51"/>
<path d="M87.5 38.7706C87.5 42.3434 84.6037 45.2397 81.0309 45.2397C77.4581 45.2397 74.5618 42.3434 74.5618 38.7706C74.5618 35.1978 77.4581 32.3015 81.0309 32.3015C84.6037 32.3015 87.5 35.1978 87.5 38.7706Z" fill="#F7F7F7" fill-opacity="0.51"/>
<path d="M87.5 64.0309C87.5 67.6037 84.6037 70.5 81.0309 70.5C77.4581 70.5 74.5618 67.6037 74.5618 64.0309C74.5618 60.4581 77.4581 57.5618 81.0309 57.5618C84.6037 57.5618 87.5 60.4581 87.5 64.0309Z" fill="#F7F7F7" fill-opacity="0.51"/>
<path d="M260.399 444.153C245.218 426.783 248.268 390.337 288.9 406.832C299.231 411.027 314.536 404.548 310.909 387.509C305.799 363.506 347.602 365.353 359.896 381.367C379.485 406.88 355.873 423.518 336.636 417.198C325.67 413.596 316.585 416.102 312.24 437.882C307.896 459.662 274.084 459.811 260.399 444.153Z" stroke="white" stroke-opacity="0.45" stroke-width="4"/>
<path d="M270.164 439.87C260.183 428.45 257.388 402.667 291.059 412.192C306.175 416.468 318.714 404.121 316.902 388.101C315.088 372.068 346.578 371.059 355.329 384.525C366.852 402.258 358.992 417.201 342.775 413.533C335.373 411.859 311.985 399.521 308.014 426.777C304.042 454.032 279.162 450.165 270.164 439.87Z" stroke="white" stroke-opacity="0.45" stroke-width="4"/>
<path d="M251.738 450.637C227.142 426.224 241.416 374.347 281.615 394.601C294.761 401.225 309.954 402.147 304.186 375.054C300.131 356.005 342.65 350.058 361.401 367.407C397.334 400.652 365.509 432.407 336.254 424.399C321.856 420.458 321.812 436.503 309.969 452.797C298.127 469.092 273.652 472.388 251.738 450.637Z" stroke="white" stroke-opacity="0.45" stroke-width="4"/>
<path d="M237.463 459.611C204.898 424.771 220.37 354.792 273.143 384.15C290.401 393.751 305.599 395.446 296.48 368.984C287.54 343.043 344.375 335.82 369.173 360.607C410.604 402.021 376.403 445.021 338.151 433.108C319.325 427.244 326.41 443.901 311.373 466.508C296.336 489.114 266.477 490.652 237.463 459.611Z" stroke="white" stroke-opacity="0.45" stroke-width="4"/>
<path d="M225.599 469.089C184.172 422.399 216.732 345.899 258.538 370.802C280.355 383.797 299.461 386.283 287.599 351.064C275.97 316.539 358.264 319.688 387.634 354.846C419.618 393.131 401.745 448.695 351.208 442.479C327.949 439.618 336.238 453.243 315.592 477.557C294.946 501.871 262.51 510.687 225.599 469.089Z" stroke="white" stroke-opacity="0.45" stroke-width="4"/>
<path d="M210.825 476.85C165.543 430.757 202.481 335.719 254.455 359.892C284.873 374.04 286.176 383.431 278.278 334.975C271.9 295.841 354.787 297.426 393.589 343.873C435.842 394.452 414.959 456.724 362.314 455.744C331.359 455.168 348.321 457.159 321.636 488.583C294.951 520.008 261.039 527.963 210.825 476.85Z" stroke="white" stroke-opacity="0.45" stroke-width="4"/>
<path d="M198.309 490.41C149.667 435.093 183.567 318.287 244.108 346.445C267.9 357.51 272.431 350.827 271.86 317.42C271.165 276.877 377.336 283.401 411.2 335.511C448.567 393.011 428.218 464.799 366.894 463.658C339.502 463.149 345.017 467.033 329.38 495.322C313.742 523.611 253.423 553.088 198.309 490.41Z" stroke="white" stroke-opacity="0.45" stroke-width="4"/>
<path d="M175.833 503.037C119.456 440.823 168.201 300.245 238.7 331.623C266.405 343.954 263.561 344.451 263.164 306.645C262.683 260.763 386.663 267.285 425.803 325.99C468.989 390.765 444.634 472.182 373.001 471.389C341.004 471.035 347.416 475.387 328.917 507.532C310.419 539.677 239.711 573.53 175.833 503.037Z" stroke="white" stroke-opacity="0.45" stroke-width="4"/>
</svg>
